<mxfile host="65bd71144e">
    <diagram name="Seite-1" id="_-IyrHC9dvsv3lMRdWXz">
        <mxGraphModel dx="1373" dy="2980" grid="1" gridSize="10" guides="1" tooltips="1" connect="1" arrows="1" fold="1" page="0" pageScale="1" pageWidth="827" pageHeight="1169" math="0" shadow="0">
            <root>
                <mxCell id="0"/>
                <mxCell id="1" parent="0"/>
                <mxCell id="H6z1mRKhEn2zVw4M9w3N-1" value="Hangar" style="swimlane;fontStyle=1;align=center;verticalAlign=top;childLayout=stackLayout;horizontal=1;startSize=23.879464285714285;horizontalStack=0;resizeParent=1;resizeParentMax=0;resizeLast=0;collapsible=0;marginBottom=0;" parent="1" vertex="1">
                    <mxGeometry x="-160" y="-1490" width="469" height="271.8794642857143" as="geometry"/>
                </mxCell>
                <mxCell id="H6z1mRKhEn2zVw4M9w3N-2" value="lagerstandort_id  " style="text;strokeColor=none;fillColor=none;align=left;verticalAlign=top;spacingLeft=4;spacingRight=4;overflow=hidden;rotatable=0;points=[[0,0.5],[1,0.5]];portConstraint=eastwest;" parent="H6z1mRKhEn2zVw4M9w3N-1" vertex="1">
                    <mxGeometry y="23.879464285714285" width="469" height="24" as="geometry"/>
                </mxCell>
                <mxCell id="H6z1mRKhEn2zVw4M9w3N-3" value="hangar_identification " style="text;strokeColor=none;fillColor=none;align=left;verticalAlign=top;spacingLeft=4;spacingRight=4;overflow=hidden;rotatable=0;points=[[0,0.5],[1,0.5]];portConstraint=eastwest;" parent="H6z1mRKhEn2zVw4M9w3N-1" vertex="1">
                    <mxGeometry y="47.879464285714285" width="469" height="24" as="geometry"/>
                </mxCell>
                <mxCell id="H6z1mRKhEn2zVw4M9w3N-4" value="hangar_size " style="text;strokeColor=none;fillColor=none;align=left;verticalAlign=top;spacingLeft=4;spacingRight=4;overflow=hidden;rotatable=0;points=[[0,0.5],[1,0.5]];portConstraint=eastwest;" parent="H6z1mRKhEn2zVw4M9w3N-1" vertex="1">
                    <mxGeometry y="71.87946428571428" width="469" height="24" as="geometry"/>
                </mxCell>
                <mxCell id="H6z1mRKhEn2zVw4M9w3N-6" style="line;strokeWidth=1;fillColor=none;align=left;verticalAlign=middle;spacingTop=-1;spacingLeft=3;spacingRight=3;rotatable=0;labelPosition=right;points=[];portConstraint=eastwest;strokeColor=inherit;" parent="H6z1mRKhEn2zVw4M9w3N-1" vertex="1">
                    <mxGeometry y="95.87946428571428" width="469" height="8" as="geometry"/>
                </mxCell>
                <mxCell id="H6z1mRKhEn2zVw4M9w3N-8" value="Hangar()" style="text;strokeColor=none;fillColor=none;align=left;verticalAlign=top;spacingLeft=4;spacingRight=4;overflow=hidden;rotatable=0;points=[[0,0.5],[1,0.5]];portConstraint=eastwest;" parent="H6z1mRKhEn2zVw4M9w3N-1" vertex="1">
                    <mxGeometry y="103.87946428571428" width="469" height="24" as="geometry"/>
                </mxCell>
                <mxCell id="H6z1mRKhEn2zVw4M9w3N-10" value="setHangar_identification()" style="text;strokeColor=none;fillColor=none;align=left;verticalAlign=top;spacingLeft=4;spacingRight=4;overflow=hidden;rotatable=0;points=[[0,0.5],[1,0.5]];portConstraint=eastwest;" parent="H6z1mRKhEn2zVw4M9w3N-1" vertex="1">
                    <mxGeometry y="127.87946428571428" width="469" height="24" as="geometry"/>
                </mxCell>
                <mxCell id="H6z1mRKhEn2zVw4M9w3N-11" value="setHangar_size()" style="text;strokeColor=none;fillColor=none;align=left;verticalAlign=top;spacingLeft=4;spacingRight=4;overflow=hidden;rotatable=0;points=[[0,0.5],[1,0.5]];portConstraint=eastwest;" parent="H6z1mRKhEn2zVw4M9w3N-1" vertex="1">
                    <mxGeometry y="151.87946428571428" width="469" height="24" as="geometry"/>
                </mxCell>
                <mxCell id="H6z1mRKhEn2zVw4M9w3N-12" value="setLagerstandort_id() " style="text;strokeColor=none;fillColor=none;align=left;verticalAlign=top;spacingLeft=4;spacingRight=4;overflow=hidden;rotatable=0;points=[[0,0.5],[1,0.5]];portConstraint=eastwest;" parent="H6z1mRKhEn2zVw4M9w3N-1" vertex="1">
                    <mxGeometry y="175.87946428571428" width="469" height="24" as="geometry"/>
                </mxCell>
                <mxCell id="H6z1mRKhEn2zVw4M9w3N-13" value="getHangar_identification() " style="text;strokeColor=none;fillColor=none;align=left;verticalAlign=top;spacingLeft=4;spacingRight=4;overflow=hidden;rotatable=0;points=[[0,0.5],[1,0.5]];portConstraint=eastwest;" parent="H6z1mRKhEn2zVw4M9w3N-1" vertex="1">
                    <mxGeometry y="199.87946428571428" width="469" height="24" as="geometry"/>
                </mxCell>
                <mxCell id="H6z1mRKhEn2zVw4M9w3N-14" value="getHangar_size() " style="text;strokeColor=none;fillColor=none;align=left;verticalAlign=top;spacingLeft=4;spacingRight=4;overflow=hidden;rotatable=0;points=[[0,0.5],[1,0.5]];portConstraint=eastwest;" parent="H6z1mRKhEn2zVw4M9w3N-1" vertex="1">
                    <mxGeometry y="223.87946428571428" width="469" height="24" as="geometry"/>
                </mxCell>
                <mxCell id="H6z1mRKhEn2zVw4M9w3N-15" value="getLagerstandort_id() " style="text;strokeColor=none;fillColor=none;align=left;verticalAlign=top;spacingLeft=4;spacingRight=4;overflow=hidden;rotatable=0;points=[[0,0.5],[1,0.5]];portConstraint=eastwest;" parent="H6z1mRKhEn2zVw4M9w3N-1" vertex="1">
                    <mxGeometry y="247.87946428571428" width="469" height="24" as="geometry"/>
                </mxCell>
                <mxCell id="H6z1mRKhEn2zVw4M9w3N-23" value="DashboardController" style="swimlane;fontStyle=1;align=center;verticalAlign=top;childLayout=stackLayout;horizontal=1;startSize=23.67375;horizontalStack=0;resizeParent=1;resizeParentMax=0;resizeLast=0;collapsible=0;marginBottom=0;" parent="1" vertex="1">
                    <mxGeometry x="350" y="-10" width="380" height="271.67375" as="geometry"/>
                </mxCell>
                <mxCell id="H6z1mRKhEn2zVw4M9w3N-24" value="productTable" style="text;strokeColor=none;fillColor=none;align=left;verticalAlign=top;spacingLeft=4;spacingRight=4;overflow=hidden;rotatable=0;points=[[0,0.5],[1,0.5]];portConstraint=eastwest;" parent="H6z1mRKhEn2zVw4M9w3N-23" vertex="1">
                    <mxGeometry y="23.67375" width="380" height="24" as="geometry"/>
                </mxCell>
                <mxCell id="H6z1mRKhEn2zVw4M9w3N-25" value="productIDColumn " style="text;strokeColor=none;fillColor=none;align=left;verticalAlign=top;spacingLeft=4;spacingRight=4;overflow=hidden;rotatable=0;points=[[0,0.5],[1,0.5]];portConstraint=eastwest;" parent="H6z1mRKhEn2zVw4M9w3N-23" vertex="1">
                    <mxGeometry y="47.67375" width="380" height="24" as="geometry"/>
                </mxCell>
                <mxCell id="H6z1mRKhEn2zVw4M9w3N-26" value="productNumberColumn " style="text;strokeColor=none;fillColor=none;align=left;verticalAlign=top;spacingLeft=4;spacingRight=4;overflow=hidden;rotatable=0;points=[[0,0.5],[1,0.5]];portConstraint=eastwest;" parent="H6z1mRKhEn2zVw4M9w3N-23" vertex="1">
                    <mxGeometry y="71.67375" width="380" height="24" as="geometry"/>
                </mxCell>
                <mxCell id="H6z1mRKhEn2zVw4M9w3N-27" value="stellplatzIDColumn" style="text;strokeColor=none;fillColor=none;align=left;verticalAlign=top;spacingLeft=4;spacingRight=4;overflow=hidden;rotatable=0;points=[[0,0.5],[1,0.5]];portConstraint=eastwest;" parent="H6z1mRKhEn2zVw4M9w3N-23" vertex="1">
                    <mxGeometry y="95.67375" width="380" height="24" as="geometry"/>
                </mxCell>
                <mxCell id="H6z1mRKhEn2zVw4M9w3N-28" value="amountColumn " style="text;strokeColor=none;fillColor=none;align=left;verticalAlign=top;spacingLeft=4;spacingRight=4;overflow=hidden;rotatable=0;points=[[0,0.5],[1,0.5]];portConstraint=eastwest;" parent="H6z1mRKhEn2zVw4M9w3N-23" vertex="1">
                    <mxGeometry y="119.67375" width="380" height="24" as="geometry"/>
                </mxCell>
                <mxCell id="H6z1mRKhEn2zVw4M9w3N-29" value="productNameColumn " style="text;strokeColor=none;fillColor=none;align=left;verticalAlign=top;spacingLeft=4;spacingRight=4;overflow=hidden;rotatable=0;points=[[0,0.5],[1,0.5]];portConstraint=eastwest;" parent="H6z1mRKhEn2zVw4M9w3N-23" vertex="1">
                    <mxGeometry y="143.67374999999998" width="380" height="24" as="geometry"/>
                </mxCell>
                <mxCell id="H6z1mRKhEn2zVw4M9w3N-30" value="manufacturerColumn " style="text;strokeColor=none;fillColor=none;align=left;verticalAlign=top;spacingLeft=4;spacingRight=4;overflow=hidden;rotatable=0;points=[[0,0.5],[1,0.5]];portConstraint=eastwest;" parent="H6z1mRKhEn2zVw4M9w3N-23" vertex="1">
                    <mxGeometry y="167.67374999999998" width="380" height="24" as="geometry"/>
                </mxCell>
                <mxCell id="H6z1mRKhEn2zVw4M9w3N-31" value="arrivalTimeColumn" style="text;strokeColor=none;fillColor=none;align=left;verticalAlign=top;spacingLeft=4;spacingRight=4;overflow=hidden;rotatable=0;points=[[0,0.5],[1,0.5]];portConstraint=eastwest;" parent="H6z1mRKhEn2zVw4M9w3N-23" vertex="1">
                    <mxGeometry y="191.67374999999998" width="380" height="24" as="geometry"/>
                </mxCell>
                <mxCell id="H6z1mRKhEn2zVw4M9w3N-32" value="searchTextField" style="text;strokeColor=none;fillColor=none;align=left;verticalAlign=top;spacingLeft=4;spacingRight=4;overflow=hidden;rotatable=0;points=[[0,0.5],[1,0.5]];portConstraint=eastwest;" parent="H6z1mRKhEn2zVw4M9w3N-23" vertex="1">
                    <mxGeometry y="215.67374999999998" width="380" height="24" as="geometry"/>
                </mxCell>
                <mxCell id="H6z1mRKhEn2zVw4M9w3N-33" value="productSearchModelObservableList" style="text;strokeColor=none;fillColor=none;align=left;verticalAlign=top;spacingLeft=4;spacingRight=4;overflow=hidden;rotatable=0;points=[[0,0.5],[1,0.5]];portConstraint=eastwest;" parent="H6z1mRKhEn2zVw4M9w3N-23" vertex="1">
                    <mxGeometry y="239.67374999999998" width="380" height="24" as="geometry"/>
                </mxCell>
                <mxCell id="H6z1mRKhEn2zVw4M9w3N-36" style="line;strokeWidth=1;fillColor=none;align=left;verticalAlign=middle;spacingTop=-1;spacingLeft=3;spacingRight=3;rotatable=0;labelPosition=right;points=[];portConstraint=eastwest;strokeColor=inherit;" parent="H6z1mRKhEn2zVw4M9w3N-23" vertex="1">
                    <mxGeometry y="263.67375" width="380" height="8" as="geometry"/>
                </mxCell>
                <mxCell id="H6z1mRKhEn2zVw4M9w3N-49" value="Product" style="swimlane;fontStyle=1;align=center;verticalAlign=top;childLayout=stackLayout;horizontal=1;startSize=23.387867647058822;horizontalStack=0;resizeParent=1;resizeParentMax=0;resizeLast=0;collapsible=0;marginBottom=0;" parent="1" vertex="1">
                    <mxGeometry x="350" y="-1490" width="820" height="698.3878676470588" as="geometry"/>
                </mxCell>
                <mxCell id="H6z1mRKhEn2zVw4M9w3N-50" value="productID " style="text;strokeColor=none;fillColor=none;align=left;verticalAlign=top;spacingLeft=4;spacingRight=4;overflow=hidden;rotatable=0;points=[[0,0.5],[1,0.5]];portConstraint=eastwest;" parent="H6z1mRKhEn2zVw4M9w3N-49" vertex="1">
                    <mxGeometry y="23.387867647058822" width="820" height="23" as="geometry"/>
                </mxCell>
                <mxCell id="H6z1mRKhEn2zVw4M9w3N-51" value="amount " style="text;strokeColor=none;fillColor=none;align=left;verticalAlign=top;spacingLeft=4;spacingRight=4;overflow=hidden;rotatable=0;points=[[0,0.5],[1,0.5]];portConstraint=eastwest;" parent="H6z1mRKhEn2zVw4M9w3N-49" vertex="1">
                    <mxGeometry y="46.387867647058826" width="820" height="23" as="geometry"/>
                </mxCell>
                <mxCell id="H6z1mRKhEn2zVw4M9w3N-52" value="shelfSpace_ID " style="text;strokeColor=none;fillColor=none;align=left;verticalAlign=top;spacingLeft=4;spacingRight=4;overflow=hidden;rotatable=0;points=[[0,0.5],[1,0.5]];portConstraint=eastwest;" parent="H6z1mRKhEn2zVw4M9w3N-49" vertex="1">
                    <mxGeometry y="69.38786764705883" width="820" height="23" as="geometry"/>
                </mxCell>
                <mxCell id="H6z1mRKhEn2zVw4M9w3N-53" value="productNumber " style="text;strokeColor=none;fillColor=none;align=left;verticalAlign=top;spacingLeft=4;spacingRight=4;overflow=hidden;rotatable=0;points=[[0,0.5],[1,0.5]];portConstraint=eastwest;" parent="H6z1mRKhEn2zVw4M9w3N-49" vertex="1">
                    <mxGeometry y="92.38786764705883" width="820" height="23" as="geometry"/>
                </mxCell>
                <mxCell id="H6z1mRKhEn2zVw4M9w3N-54" value="productName " style="text;strokeColor=none;fillColor=none;align=left;verticalAlign=top;spacingLeft=4;spacingRight=4;overflow=hidden;rotatable=0;points=[[0,0.5],[1,0.5]];portConstraint=eastwest;" parent="H6z1mRKhEn2zVw4M9w3N-49" vertex="1">
                    <mxGeometry y="115.38786764705883" width="820" height="23" as="geometry"/>
                </mxCell>
                <mxCell id="H6z1mRKhEn2zVw4M9w3N-55" value="manufacturer " style="text;strokeColor=none;fillColor=none;align=left;verticalAlign=top;spacingLeft=4;spacingRight=4;overflow=hidden;rotatable=0;points=[[0,0.5],[1,0.5]];portConstraint=eastwest;" parent="H6z1mRKhEn2zVw4M9w3N-49" vertex="1">
                    <mxGeometry y="138.38786764705884" width="820" height="23" as="geometry"/>
                </mxCell>
                <mxCell id="H6z1mRKhEn2zVw4M9w3N-56" value="shelfSpace_Identification " style="text;strokeColor=none;fillColor=none;align=left;verticalAlign=top;spacingLeft=4;spacingRight=4;overflow=hidden;rotatable=0;points=[[0,0.5],[1,0.5]];portConstraint=eastwest;" parent="H6z1mRKhEn2zVw4M9w3N-49" vertex="1">
                    <mxGeometry y="161.38786764705884" width="820" height="23" as="geometry"/>
                </mxCell>
                <mxCell id="H6z1mRKhEn2zVw4M9w3N-57" value="stellplatzID " style="text;strokeColor=none;fillColor=none;align=left;verticalAlign=top;spacingLeft=4;spacingRight=4;overflow=hidden;rotatable=0;points=[[0,0.5],[1,0.5]];portConstraint=eastwest;" parent="H6z1mRKhEn2zVw4M9w3N-49" vertex="1">
                    <mxGeometry y="184.38786764705884" width="820" height="23" as="geometry"/>
                </mxCell>
                <mxCell id="H6z1mRKhEn2zVw4M9w3N-58" value="arrivalTime " style="text;strokeColor=none;fillColor=none;align=left;verticalAlign=top;spacingLeft=4;spacingRight=4;overflow=hidden;rotatable=0;points=[[0,0.5],[1,0.5]];portConstraint=eastwest;" parent="H6z1mRKhEn2zVw4M9w3N-49" vertex="1">
                    <mxGeometry y="207.38786764705884" width="820" height="23" as="geometry"/>
                </mxCell>
                <mxCell id="H6z1mRKhEn2zVw4M9w3N-59" style="line;strokeWidth=1;fillColor=none;align=left;verticalAlign=middle;spacingTop=-1;spacingLeft=3;spacingRight=3;rotatable=0;labelPosition=right;points=[];portConstraint=eastwest;strokeColor=inherit;" parent="H6z1mRKhEn2zVw4M9w3N-49" vertex="1">
                    <mxGeometry y="230.38786764705884" width="820" height="8" as="geometry"/>
                </mxCell>
                <mxCell id="H6z1mRKhEn2zVw4M9w3N-61" value="Product()" style="text;strokeColor=none;fillColor=none;align=left;verticalAlign=top;spacingLeft=4;spacingRight=4;overflow=hidden;rotatable=0;points=[[0,0.5],[1,0.5]];portConstraint=eastwest;" parent="H6z1mRKhEn2zVw4M9w3N-49" vertex="1">
                    <mxGeometry y="238.38786764705884" width="820" height="23" as="geometry"/>
                </mxCell>
                <mxCell id="H6z1mRKhEn2zVw4M9w3N-62" value="getStellplatzID() " style="text;strokeColor=none;fillColor=none;align=left;verticalAlign=top;spacingLeft=4;spacingRight=4;overflow=hidden;rotatable=0;points=[[0,0.5],[1,0.5]];portConstraint=eastwest;" parent="H6z1mRKhEn2zVw4M9w3N-49" vertex="1">
                    <mxGeometry y="261.38786764705884" width="820" height="23" as="geometry"/>
                </mxCell>
                <mxCell id="H6z1mRKhEn2zVw4M9w3N-63" value="setStellplatzID()" style="text;strokeColor=none;fillColor=none;align=left;verticalAlign=top;spacingLeft=4;spacingRight=4;overflow=hidden;rotatable=0;points=[[0,0.5],[1,0.5]];portConstraint=eastwest;" parent="H6z1mRKhEn2zVw4M9w3N-49" vertex="1">
                    <mxGeometry y="284.38786764705884" width="820" height="23" as="geometry"/>
                </mxCell>
                <mxCell id="H6z1mRKhEn2zVw4M9w3N-64" value="getArrivalTime() " style="text;strokeColor=none;fillColor=none;align=left;verticalAlign=top;spacingLeft=4;spacingRight=4;overflow=hidden;rotatable=0;points=[[0,0.5],[1,0.5]];portConstraint=eastwest;" parent="H6z1mRKhEn2zVw4M9w3N-49" vertex="1">
                    <mxGeometry y="307.38786764705884" width="820" height="23" as="geometry"/>
                </mxCell>
                <mxCell id="H6z1mRKhEn2zVw4M9w3N-65" value="getAmount() " style="text;strokeColor=none;fillColor=none;align=left;verticalAlign=top;spacingLeft=4;spacingRight=4;overflow=hidden;rotatable=0;points=[[0,0.5],[1,0.5]];portConstraint=eastwest;" parent="H6z1mRKhEn2zVw4M9w3N-49" vertex="1">
                    <mxGeometry y="330.38786764705884" width="820" height="23" as="geometry"/>
                </mxCell>
                <mxCell id="H6z1mRKhEn2zVw4M9w3N-66" value="setAmount()" style="text;strokeColor=none;fillColor=none;align=left;verticalAlign=top;spacingLeft=4;spacingRight=4;overflow=hidden;rotatable=0;points=[[0,0.5],[1,0.5]];portConstraint=eastwest;" parent="H6z1mRKhEn2zVw4M9w3N-49" vertex="1">
                    <mxGeometry y="353.38786764705884" width="820" height="23" as="geometry"/>
                </mxCell>
                <mxCell id="H6z1mRKhEn2zVw4M9w3N-67" value="getProductNumber() " style="text;strokeColor=none;fillColor=none;align=left;verticalAlign=top;spacingLeft=4;spacingRight=4;overflow=hidden;rotatable=0;points=[[0,0.5],[1,0.5]];portConstraint=eastwest;" parent="H6z1mRKhEn2zVw4M9w3N-49" vertex="1">
                    <mxGeometry y="376.38786764705884" width="820" height="23" as="geometry"/>
                </mxCell>
                <mxCell id="H6z1mRKhEn2zVw4M9w3N-68" value="setProductNumber() " style="text;strokeColor=none;fillColor=none;align=left;verticalAlign=top;spacingLeft=4;spacingRight=4;overflow=hidden;rotatable=0;points=[[0,0.5],[1,0.5]];portConstraint=eastwest;" parent="H6z1mRKhEn2zVw4M9w3N-49" vertex="1">
                    <mxGeometry y="399.38786764705884" width="820" height="23" as="geometry"/>
                </mxCell>
                <mxCell id="H6z1mRKhEn2zVw4M9w3N-69" value="getshelfSpace_ID() " style="text;strokeColor=none;fillColor=none;align=left;verticalAlign=top;spacingLeft=4;spacingRight=4;overflow=hidden;rotatable=0;points=[[0,0.5],[1,0.5]];portConstraint=eastwest;" parent="H6z1mRKhEn2zVw4M9w3N-49" vertex="1">
                    <mxGeometry y="422.38786764705884" width="820" height="23" as="geometry"/>
                </mxCell>
                <mxCell id="H6z1mRKhEn2zVw4M9w3N-70" value="setshelfSpace_ID()" style="text;strokeColor=none;fillColor=none;align=left;verticalAlign=top;spacingLeft=4;spacingRight=4;overflow=hidden;rotatable=0;points=[[0,0.5],[1,0.5]];portConstraint=eastwest;" parent="H6z1mRKhEn2zVw4M9w3N-49" vertex="1">
                    <mxGeometry y="445.38786764705884" width="820" height="23" as="geometry"/>
                </mxCell>
                <mxCell id="H6z1mRKhEn2zVw4M9w3N-71" value="getProductName() " style="text;strokeColor=none;fillColor=none;align=left;verticalAlign=top;spacingLeft=4;spacingRight=4;overflow=hidden;rotatable=0;points=[[0,0.5],[1,0.5]];portConstraint=eastwest;" parent="H6z1mRKhEn2zVw4M9w3N-49" vertex="1">
                    <mxGeometry y="468.38786764705884" width="820" height="23" as="geometry"/>
                </mxCell>
                <mxCell id="H6z1mRKhEn2zVw4M9w3N-72" value="setProductName()" style="text;strokeColor=none;fillColor=none;align=left;verticalAlign=top;spacingLeft=4;spacingRight=4;overflow=hidden;rotatable=0;points=[[0,0.5],[1,0.5]];portConstraint=eastwest;" parent="H6z1mRKhEn2zVw4M9w3N-49" vertex="1">
                    <mxGeometry y="491.38786764705884" width="820" height="23" as="geometry"/>
                </mxCell>
                <mxCell id="H6z1mRKhEn2zVw4M9w3N-73" value="getManufacturer() " style="text;strokeColor=none;fillColor=none;align=left;verticalAlign=top;spacingLeft=4;spacingRight=4;overflow=hidden;rotatable=0;points=[[0,0.5],[1,0.5]];portConstraint=eastwest;" parent="H6z1mRKhEn2zVw4M9w3N-49" vertex="1">
                    <mxGeometry y="514.3878676470588" width="820" height="23" as="geometry"/>
                </mxCell>
                <mxCell id="H6z1mRKhEn2zVw4M9w3N-74" value="setManufacturer()" style="text;strokeColor=none;fillColor=none;align=left;verticalAlign=top;spacingLeft=4;spacingRight=4;overflow=hidden;rotatable=0;points=[[0,0.5],[1,0.5]];portConstraint=eastwest;" parent="H6z1mRKhEn2zVw4M9w3N-49" vertex="1">
                    <mxGeometry y="537.3878676470588" width="820" height="23" as="geometry"/>
                </mxCell>
                <mxCell id="H6z1mRKhEn2zVw4M9w3N-75" value="getProductID() " style="text;strokeColor=none;fillColor=none;align=left;verticalAlign=top;spacingLeft=4;spacingRight=4;overflow=hidden;rotatable=0;points=[[0,0.5],[1,0.5]];portConstraint=eastwest;" parent="H6z1mRKhEn2zVw4M9w3N-49" vertex="1">
                    <mxGeometry y="560.3878676470588" width="820" height="23" as="geometry"/>
                </mxCell>
                <mxCell id="H6z1mRKhEn2zVw4M9w3N-76" value="getShelfSpace_Identification() " style="text;strokeColor=none;fillColor=none;align=left;verticalAlign=top;spacingLeft=4;spacingRight=4;overflow=hidden;rotatable=0;points=[[0,0.5],[1,0.5]];portConstraint=eastwest;" parent="H6z1mRKhEn2zVw4M9w3N-49" vertex="1">
                    <mxGeometry y="583.3878676470588" width="820" height="23" as="geometry"/>
                </mxCell>
                <mxCell id="H6z1mRKhEn2zVw4M9w3N-77" value="setShelfSpace_Identification()" style="text;strokeColor=none;fillColor=none;align=left;verticalAlign=top;spacingLeft=4;spacingRight=4;overflow=hidden;rotatable=0;points=[[0,0.5],[1,0.5]];portConstraint=eastwest;" parent="H6z1mRKhEn2zVw4M9w3N-49" vertex="1">
                    <mxGeometry y="606.3878676470588" width="820" height="23" as="geometry"/>
                </mxCell>
                <mxCell id="H6z1mRKhEn2zVw4M9w3N-78" value="setProductID()  " style="text;strokeColor=none;fillColor=none;align=left;verticalAlign=top;spacingLeft=4;spacingRight=4;overflow=hidden;rotatable=0;points=[[0,0.5],[1,0.5]];portConstraint=eastwest;" parent="H6z1mRKhEn2zVw4M9w3N-49" vertex="1">
                    <mxGeometry y="629.3878676470588" width="820" height="23" as="geometry"/>
                </mxCell>
                <mxCell id="H6z1mRKhEn2zVw4M9w3N-82" value="setShelfSpace_Identification() " style="text;strokeColor=none;fillColor=none;align=left;verticalAlign=top;spacingLeft=4;spacingRight=4;overflow=hidden;rotatable=0;points=[[0,0.5],[1,0.5]];portConstraint=eastwest;" parent="H6z1mRKhEn2zVw4M9w3N-49" vertex="1">
                    <mxGeometry y="652.3878676470588" width="820" height="23" as="geometry"/>
                </mxCell>
                <mxCell id="H6z1mRKhEn2zVw4M9w3N-83" value="+getShelfSpaces()" style="text;strokeColor=none;fillColor=none;align=left;verticalAlign=top;spacingLeft=4;spacingRight=4;overflow=hidden;rotatable=0;points=[[0,0.5],[1,0.5]];portConstraint=eastwest;" parent="H6z1mRKhEn2zVw4M9w3N-49" vertex="1">
                    <mxGeometry y="675.3878676470588" width="820" height="23" as="geometry"/>
                </mxCell>
                <mxCell id="H6z1mRKhEn2zVw4M9w3N-84" value="Shelf" style="swimlane;fontStyle=1;align=center;verticalAlign=top;childLayout=stackLayout;horizontal=1;startSize=23.252286585365855;horizontalStack=0;resizeParent=1;resizeParentMax=0;resizeLast=0;collapsible=0;marginBottom=0;" parent="1" vertex="1">
                    <mxGeometry x="1220" y="-1490" width="640" height="560.2522865853658" as="geometry"/>
                </mxCell>
                <mxCell id="H6z1mRKhEn2zVw4M9w3N-85" value="id " style="text;strokeColor=none;fillColor=none;align=left;verticalAlign=top;spacingLeft=4;spacingRight=4;overflow=hidden;rotatable=0;points=[[0,0.5],[1,0.5]];portConstraint=eastwest;" parent="H6z1mRKhEn2zVw4M9w3N-84" vertex="1">
                    <mxGeometry y="23.252286585365855" width="640" height="23" as="geometry"/>
                </mxCell>
                <mxCell id="H6z1mRKhEn2zVw4M9w3N-86" value="id_hangar " style="text;strokeColor=none;fillColor=none;align=left;verticalAlign=top;spacingLeft=4;spacingRight=4;overflow=hidden;rotatable=0;points=[[0,0.5],[1,0.5]];portConstraint=eastwest;" parent="H6z1mRKhEn2zVw4M9w3N-84" vertex="1">
                    <mxGeometry y="46.25228658536585" width="640" height="23" as="geometry"/>
                </mxCell>
                <mxCell id="H6z1mRKhEn2zVw4M9w3N-87" value="shelfIdentification " style="text;strokeColor=none;fillColor=none;align=left;verticalAlign=top;spacingLeft=4;spacingRight=4;overflow=hidden;rotatable=0;points=[[0,0.5],[1,0.5]];portConstraint=eastwest;" parent="H6z1mRKhEn2zVw4M9w3N-84" vertex="1">
                    <mxGeometry y="69.25228658536585" width="640" height="23" as="geometry"/>
                </mxCell>
                <mxCell id="H6z1mRKhEn2zVw4M9w3N-88" value="shelfCatagory " style="text;strokeColor=none;fillColor=none;align=left;verticalAlign=top;spacingLeft=4;spacingRight=4;overflow=hidden;rotatable=0;points=[[0,0.5],[1,0.5]];portConstraint=eastwest;" parent="H6z1mRKhEn2zVw4M9w3N-84" vertex="1">
                    <mxGeometry y="92.25228658536585" width="640" height="23" as="geometry"/>
                </mxCell>
                <mxCell id="H6z1mRKhEn2zVw4M9w3N-89" value="shelfCapacity " style="text;strokeColor=none;fillColor=none;align=left;verticalAlign=top;spacingLeft=4;spacingRight=4;overflow=hidden;rotatable=0;points=[[0,0.5],[1,0.5]];portConstraint=eastwest;" parent="H6z1mRKhEn2zVw4M9w3N-84" vertex="1">
                    <mxGeometry y="115.25228658536585" width="640" height="23" as="geometry"/>
                </mxCell>
                <mxCell id="H6z1mRKhEn2zVw4M9w3N-90" value="usedCapacity " style="text;strokeColor=none;fillColor=none;align=left;verticalAlign=top;spacingLeft=4;spacingRight=4;overflow=hidden;rotatable=0;points=[[0,0.5],[1,0.5]];portConstraint=eastwest;" parent="H6z1mRKhEn2zVw4M9w3N-84" vertex="1">
                    <mxGeometry y="138.25228658536585" width="640" height="23" as="geometry"/>
                </mxCell>
                <mxCell id="H6z1mRKhEn2zVw4M9w3N-91" value="shelfType " style="text;strokeColor=none;fillColor=none;align=left;verticalAlign=top;spacingLeft=4;spacingRight=4;overflow=hidden;rotatable=0;points=[[0,0.5],[1,0.5]];portConstraint=eastwest;" parent="H6z1mRKhEn2zVw4M9w3N-84" vertex="1">
                    <mxGeometry y="161.25228658536585" width="640" height="23" as="geometry"/>
                </mxCell>
                <mxCell id="H6z1mRKhEn2zVw4M9w3N-92" value="shelfCondition " style="text;strokeColor=none;fillColor=none;align=left;verticalAlign=top;spacingLeft=4;spacingRight=4;overflow=hidden;rotatable=0;points=[[0,0.5],[1,0.5]];portConstraint=eastwest;" parent="H6z1mRKhEn2zVw4M9w3N-84" vertex="1">
                    <mxGeometry y="184.25228658536585" width="640" height="23" as="geometry"/>
                </mxCell>
                <mxCell id="H6z1mRKhEn2zVw4M9w3N-95" style="line;strokeWidth=1;fillColor=none;align=left;verticalAlign=middle;spacingTop=-1;spacingLeft=3;spacingRight=3;rotatable=0;labelPosition=right;points=[];portConstraint=eastwest;strokeColor=inherit;" parent="H6z1mRKhEn2zVw4M9w3N-84" vertex="1">
                    <mxGeometry y="207.25228658536585" width="640" height="8" as="geometry"/>
                </mxCell>
                <mxCell id="H6z1mRKhEn2zVw4M9w3N-99" value="Shelf()" style="text;strokeColor=none;fillColor=none;align=left;verticalAlign=top;spacingLeft=4;spacingRight=4;overflow=hidden;rotatable=0;points=[[0,0.5],[1,0.5]];portConstraint=eastwest;" parent="H6z1mRKhEn2zVw4M9w3N-84" vertex="1">
                    <mxGeometry y="215.25228658536585" width="640" height="23" as="geometry"/>
                </mxCell>
                <mxCell id="H6z1mRKhEn2zVw4M9w3N-100" value="setIdHangar()" style="text;strokeColor=none;fillColor=none;align=left;verticalAlign=top;spacingLeft=4;spacingRight=4;overflow=hidden;rotatable=0;points=[[0,0.5],[1,0.5]];portConstraint=eastwest;" parent="H6z1mRKhEn2zVw4M9w3N-84" vertex="1">
                    <mxGeometry y="238.25228658536585" width="640" height="23" as="geometry"/>
                </mxCell>
                <mxCell id="H6z1mRKhEn2zVw4M9w3N-101" value="setShelfIdentification()" style="text;strokeColor=none;fillColor=none;align=left;verticalAlign=top;spacingLeft=4;spacingRight=4;overflow=hidden;rotatable=0;points=[[0,0.5],[1,0.5]];portConstraint=eastwest;" parent="H6z1mRKhEn2zVw4M9w3N-84" vertex="1">
                    <mxGeometry y="261.2522865853658" width="640" height="23" as="geometry"/>
                </mxCell>
                <mxCell id="H6z1mRKhEn2zVw4M9w3N-102" value="setShelfCatagory()" style="text;strokeColor=none;fillColor=none;align=left;verticalAlign=top;spacingLeft=4;spacingRight=4;overflow=hidden;rotatable=0;points=[[0,0.5],[1,0.5]];portConstraint=eastwest;" parent="H6z1mRKhEn2zVw4M9w3N-84" vertex="1">
                    <mxGeometry y="284.2522865853658" width="640" height="23" as="geometry"/>
                </mxCell>
                <mxCell id="H6z1mRKhEn2zVw4M9w3N-103" value="sethelfCapacity()" style="text;strokeColor=none;fillColor=none;align=left;verticalAlign=top;spacingLeft=4;spacingRight=4;overflow=hidden;rotatable=0;points=[[0,0.5],[1,0.5]];portConstraint=eastwest;" parent="H6z1mRKhEn2zVw4M9w3N-84" vertex="1">
                    <mxGeometry y="307.2522865853658" width="640" height="23" as="geometry"/>
                </mxCell>
                <mxCell id="H6z1mRKhEn2zVw4M9w3N-104" value="setUsedCapacity()" style="text;strokeColor=none;fillColor=none;align=left;verticalAlign=top;spacingLeft=4;spacingRight=4;overflow=hidden;rotatable=0;points=[[0,0.5],[1,0.5]];portConstraint=eastwest;" parent="H6z1mRKhEn2zVw4M9w3N-84" vertex="1">
                    <mxGeometry y="330.2522865853658" width="640" height="23" as="geometry"/>
                </mxCell>
                <mxCell id="H6z1mRKhEn2zVw4M9w3N-105" value="setShelfType()" style="text;strokeColor=none;fillColor=none;align=left;verticalAlign=top;spacingLeft=4;spacingRight=4;overflow=hidden;rotatable=0;points=[[0,0.5],[1,0.5]];portConstraint=eastwest;" parent="H6z1mRKhEn2zVw4M9w3N-84" vertex="1">
                    <mxGeometry y="353.2522865853658" width="640" height="23" as="geometry"/>
                </mxCell>
                <mxCell id="H6z1mRKhEn2zVw4M9w3N-106" value="setShelfCondition()" style="text;strokeColor=none;fillColor=none;align=left;verticalAlign=top;spacingLeft=4;spacingRight=4;overflow=hidden;rotatable=0;points=[[0,0.5],[1,0.5]];portConstraint=eastwest;" parent="H6z1mRKhEn2zVw4M9w3N-84" vertex="1">
                    <mxGeometry y="376.2522865853658" width="640" height="23" as="geometry"/>
                </mxCell>
                <mxCell id="H6z1mRKhEn2zVw4M9w3N-107" value="getIdHangar() " style="text;strokeColor=none;fillColor=none;align=left;verticalAlign=top;spacingLeft=4;spacingRight=4;overflow=hidden;rotatable=0;points=[[0,0.5],[1,0.5]];portConstraint=eastwest;" parent="H6z1mRKhEn2zVw4M9w3N-84" vertex="1">
                    <mxGeometry y="399.2522865853658" width="640" height="23" as="geometry"/>
                </mxCell>
                <mxCell id="H6z1mRKhEn2zVw4M9w3N-108" value="getShelfIdentification() " style="text;strokeColor=none;fillColor=none;align=left;verticalAlign=top;spacingLeft=4;spacingRight=4;overflow=hidden;rotatable=0;points=[[0,0.5],[1,0.5]];portConstraint=eastwest;" parent="H6z1mRKhEn2zVw4M9w3N-84" vertex="1">
                    <mxGeometry y="422.2522865853658" width="640" height="23" as="geometry"/>
                </mxCell>
                <mxCell id="H6z1mRKhEn2zVw4M9w3N-109" value="getShelfCatagory() " style="text;strokeColor=none;fillColor=none;align=left;verticalAlign=top;spacingLeft=4;spacingRight=4;overflow=hidden;rotatable=0;points=[[0,0.5],[1,0.5]];portConstraint=eastwest;" parent="H6z1mRKhEn2zVw4M9w3N-84" vertex="1">
                    <mxGeometry y="445.2522865853658" width="640" height="23" as="geometry"/>
                </mxCell>
                <mxCell id="H6z1mRKhEn2zVw4M9w3N-110" value="getShelfCapacity() " style="text;strokeColor=none;fillColor=none;align=left;verticalAlign=top;spacingLeft=4;spacingRight=4;overflow=hidden;rotatable=0;points=[[0,0.5],[1,0.5]];portConstraint=eastwest;" parent="H6z1mRKhEn2zVw4M9w3N-84" vertex="1">
                    <mxGeometry y="468.2522865853658" width="640" height="23" as="geometry"/>
                </mxCell>
                <mxCell id="H6z1mRKhEn2zVw4M9w3N-111" value="getUsedCapacity() " style="text;strokeColor=none;fillColor=none;align=left;verticalAlign=top;spacingLeft=4;spacingRight=4;overflow=hidden;rotatable=0;points=[[0,0.5],[1,0.5]];portConstraint=eastwest;" parent="H6z1mRKhEn2zVw4M9w3N-84" vertex="1">
                    <mxGeometry y="491.2522865853658" width="640" height="23" as="geometry"/>
                </mxCell>
                <mxCell id="H6z1mRKhEn2zVw4M9w3N-112" value="getShelfType() " style="text;strokeColor=none;fillColor=none;align=left;verticalAlign=top;spacingLeft=4;spacingRight=4;overflow=hidden;rotatable=0;points=[[0,0.5],[1,0.5]];portConstraint=eastwest;" parent="H6z1mRKhEn2zVw4M9w3N-84" vertex="1">
                    <mxGeometry y="514.2522865853658" width="640" height="23" as="geometry"/>
                </mxCell>
                <mxCell id="H6z1mRKhEn2zVw4M9w3N-113" value="getShelfCondition() " style="text;strokeColor=none;fillColor=none;align=left;verticalAlign=top;spacingLeft=4;spacingRight=4;overflow=hidden;rotatable=0;points=[[0,0.5],[1,0.5]];portConstraint=eastwest;" parent="H6z1mRKhEn2zVw4M9w3N-84" vertex="1">
                    <mxGeometry y="537.2522865853658" width="640" height="23" as="geometry"/>
                </mxCell>
                <mxCell id="H6z1mRKhEn2zVw4M9w3N-126" value="ShelfSpace" style="swimlane;fontStyle=1;align=center;verticalAlign=top;childLayout=stackLayout;horizontal=1;startSize=23.59375;horizontalStack=0;resizeParent=1;resizeParentMax=0;resizeLast=0;collapsible=0;marginBottom=0;" parent="1" vertex="1">
                    <mxGeometry x="1910" y="-1490" width="490" height="319.59375" as="geometry"/>
                </mxCell>
                <mxCell id="H6z1mRKhEn2zVw4M9w3N-127" value="id" style="text;strokeColor=none;fillColor=none;align=left;verticalAlign=top;spacingLeft=4;spacingRight=4;overflow=hidden;rotatable=0;points=[[0,0.5],[1,0.5]];portConstraint=eastwest;" parent="H6z1mRKhEn2zVw4M9w3N-126" vertex="1">
                    <mxGeometry y="23.59375" width="490" height="24" as="geometry"/>
                </mxCell>
                <mxCell id="H6z1mRKhEn2zVw4M9w3N-128" value="shelf_id " style="text;strokeColor=none;fillColor=none;align=left;verticalAlign=top;spacingLeft=4;spacingRight=4;overflow=hidden;rotatable=0;points=[[0,0.5],[1,0.5]];portConstraint=eastwest;" parent="H6z1mRKhEn2zVw4M9w3N-126" vertex="1">
                    <mxGeometry y="47.59375" width="490" height="24" as="geometry"/>
                </mxCell>
                <mxCell id="H6z1mRKhEn2zVw4M9w3N-129" value="spaceIdentification " style="text;strokeColor=none;fillColor=none;align=left;verticalAlign=top;spacingLeft=4;spacingRight=4;overflow=hidden;rotatable=0;points=[[0,0.5],[1,0.5]];portConstraint=eastwest;" parent="H6z1mRKhEn2zVw4M9w3N-126" vertex="1">
                    <mxGeometry y="71.59375" width="490" height="24" as="geometry"/>
                </mxCell>
                <mxCell id="H6z1mRKhEn2zVw4M9w3N-130" value="spaceOccupied " style="text;strokeColor=none;fillColor=none;align=left;verticalAlign=top;spacingLeft=4;spacingRight=4;overflow=hidden;rotatable=0;points=[[0,0.5],[1,0.5]];portConstraint=eastwest;" parent="H6z1mRKhEn2zVw4M9w3N-126" vertex="1">
                    <mxGeometry y="95.59375" width="490" height="24" as="geometry"/>
                </mxCell>
                <mxCell id="H6z1mRKhEn2zVw4M9w3N-131" value="objectInstance " style="text;strokeColor=none;fillColor=none;align=left;verticalAlign=top;spacingLeft=4;spacingRight=4;overflow=hidden;rotatable=0;points=[[0,0.5],[1,0.5]];portConstraint=eastwest;" parent="H6z1mRKhEn2zVw4M9w3N-126" vertex="1">
                    <mxGeometry y="119.59375" width="490" height="24" as="geometry"/>
                </mxCell>
                <mxCell id="H6z1mRKhEn2zVw4M9w3N-133" style="line;strokeWidth=1;fillColor=none;align=left;verticalAlign=middle;spacingTop=-1;spacingLeft=3;spacingRight=3;rotatable=0;labelPosition=right;points=[];portConstraint=eastwest;strokeColor=inherit;" parent="H6z1mRKhEn2zVw4M9w3N-126" vertex="1">
                    <mxGeometry y="143.59375" width="490" height="8" as="geometry"/>
                </mxCell>
                <mxCell id="H6z1mRKhEn2zVw4M9w3N-135" value="ShelfSpace()" style="text;strokeColor=none;fillColor=none;align=left;verticalAlign=top;spacingLeft=4;spacingRight=4;overflow=hidden;rotatable=0;points=[[0,0.5],[1,0.5]];portConstraint=eastwest;" parent="H6z1mRKhEn2zVw4M9w3N-126" vertex="1">
                    <mxGeometry y="151.59375" width="490" height="24" as="geometry"/>
                </mxCell>
                <mxCell id="H6z1mRKhEn2zVw4M9w3N-138" value="setShelfId() " style="text;strokeColor=none;fillColor=none;align=left;verticalAlign=top;spacingLeft=4;spacingRight=4;overflow=hidden;rotatable=0;points=[[0,0.5],[1,0.5]];portConstraint=eastwest;" parent="H6z1mRKhEn2zVw4M9w3N-126" vertex="1">
                    <mxGeometry y="175.59375" width="490" height="24" as="geometry"/>
                </mxCell>
                <mxCell id="H6z1mRKhEn2zVw4M9w3N-139" value="setSpaceIdentifiaction()" style="text;strokeColor=none;fillColor=none;align=left;verticalAlign=top;spacingLeft=4;spacingRight=4;overflow=hidden;rotatable=0;points=[[0,0.5],[1,0.5]];portConstraint=eastwest;" parent="H6z1mRKhEn2zVw4M9w3N-126" vertex="1">
                    <mxGeometry y="199.59375" width="490" height="24" as="geometry"/>
                </mxCell>
                <mxCell id="H6z1mRKhEn2zVw4M9w3N-140" value="setSpaceOccupied()" style="text;strokeColor=none;fillColor=none;align=left;verticalAlign=top;spacingLeft=4;spacingRight=4;overflow=hidden;rotatable=0;points=[[0,0.5],[1,0.5]];portConstraint=eastwest;" parent="H6z1mRKhEn2zVw4M9w3N-126" vertex="1">
                    <mxGeometry y="223.59375" width="490" height="24" as="geometry"/>
                </mxCell>
                <mxCell id="H6z1mRKhEn2zVw4M9w3N-141" value="getShelfID() " style="text;strokeColor=none;fillColor=none;align=left;verticalAlign=top;spacingLeft=4;spacingRight=4;overflow=hidden;rotatable=0;points=[[0,0.5],[1,0.5]];portConstraint=eastwest;" parent="H6z1mRKhEn2zVw4M9w3N-126" vertex="1">
                    <mxGeometry y="247.59375" width="490" height="24" as="geometry"/>
                </mxCell>
                <mxCell id="H6z1mRKhEn2zVw4M9w3N-142" value="getSpaceIdentification() " style="text;strokeColor=none;fillColor=none;align=left;verticalAlign=top;spacingLeft=4;spacingRight=4;overflow=hidden;rotatable=0;points=[[0,0.5],[1,0.5]];portConstraint=eastwest;" parent="H6z1mRKhEn2zVw4M9w3N-126" vertex="1">
                    <mxGeometry y="271.59375" width="490" height="24" as="geometry"/>
                </mxCell>
                <mxCell id="H6z1mRKhEn2zVw4M9w3N-143" value="getSpaceOccupied() " style="text;strokeColor=none;fillColor=none;align=left;verticalAlign=top;spacingLeft=4;spacingRight=4;overflow=hidden;rotatable=0;points=[[0,0.5],[1,0.5]];portConstraint=eastwest;" parent="H6z1mRKhEn2zVw4M9w3N-126" vertex="1">
                    <mxGeometry y="295.59375" width="490" height="24" as="geometry"/>
                </mxCell>
                <mxCell id="H6z1mRKhEn2zVw4M9w3N-154" value="TemperatureRelatedProduct" style="swimlane;fontStyle=1;align=center;verticalAlign=top;childLayout=stackLayout;horizontal=1;startSize=25.59375;horizontalStack=0;resizeParent=1;resizeParentMax=0;resizeLast=0;collapsible=0;marginBottom=0;" parent="1" vertex="1">
                    <mxGeometry x="860" y="-2000" width="990" height="215.59375" as="geometry"/>
                </mxCell>
                <mxCell id="H6z1mRKhEn2zVw4M9w3N-155" value="climateCategory " style="text;strokeColor=none;fillColor=none;align=left;verticalAlign=top;spacingLeft=4;spacingRight=4;overflow=hidden;rotatable=0;points=[[0,0.5],[1,0.5]];portConstraint=eastwest;" parent="H6z1mRKhEn2zVw4M9w3N-154" vertex="1">
                    <mxGeometry y="25.59375" width="990" height="26" as="geometry"/>
                </mxCell>
                <mxCell id="H6z1mRKhEn2zVw4M9w3N-156" value="temperature " style="text;strokeColor=none;fillColor=none;align=left;verticalAlign=top;spacingLeft=4;spacingRight=4;overflow=hidden;rotatable=0;points=[[0,0.5],[1,0.5]];portConstraint=eastwest;" parent="H6z1mRKhEn2zVw4M9w3N-154" vertex="1">
                    <mxGeometry y="51.59375" width="990" height="26" as="geometry"/>
                </mxCell>
                <mxCell id="H6z1mRKhEn2zVw4M9w3N-157" style="line;strokeWidth=1;fillColor=none;align=left;verticalAlign=middle;spacingTop=-1;spacingLeft=3;spacingRight=3;rotatable=0;labelPosition=right;points=[];portConstraint=eastwest;strokeColor=inherit;" parent="H6z1mRKhEn2zVw4M9w3N-154" vertex="1">
                    <mxGeometry y="77.59375" width="990" height="8" as="geometry"/>
                </mxCell>
                <mxCell id="H6z1mRKhEn2zVw4M9w3N-158" value="TemperatureRelatedProduct()" style="text;strokeColor=none;fillColor=none;align=left;verticalAlign=top;spacingLeft=4;spacingRight=4;overflow=hidden;rotatable=0;points=[[0,0.5],[1,0.5]];portConstraint=eastwest;" parent="H6z1mRKhEn2zVw4M9w3N-154" vertex="1">
                    <mxGeometry y="85.59375" width="990" height="26" as="geometry"/>
                </mxCell>
                <mxCell id="H6z1mRKhEn2zVw4M9w3N-159" value="getClimateCategory() " style="text;strokeColor=none;fillColor=none;align=left;verticalAlign=top;spacingLeft=4;spacingRight=4;overflow=hidden;rotatable=0;points=[[0,0.5],[1,0.5]];portConstraint=eastwest;" parent="H6z1mRKhEn2zVw4M9w3N-154" vertex="1">
                    <mxGeometry y="111.59375" width="990" height="26" as="geometry"/>
                </mxCell>
                <mxCell id="H6z1mRKhEn2zVw4M9w3N-160" value="getTemperature() " style="text;strokeColor=none;fillColor=none;align=left;verticalAlign=top;spacingLeft=4;spacingRight=4;overflow=hidden;rotatable=0;points=[[0,0.5],[1,0.5]];portConstraint=eastwest;" parent="H6z1mRKhEn2zVw4M9w3N-154" vertex="1">
                    <mxGeometry y="137.59375" width="990" height="26" as="geometry"/>
                </mxCell>
                <mxCell id="H6z1mRKhEn2zVw4M9w3N-161" value="setClimateCategory(climateCategory : String) " style="text;strokeColor=none;fillColor=none;align=left;verticalAlign=top;spacingLeft=4;spacingRight=4;overflow=hidden;rotatable=0;points=[[0,0.5],[1,0.5]];portConstraint=eastwest;" parent="H6z1mRKhEn2zVw4M9w3N-154" vertex="1">
                    <mxGeometry y="163.59375" width="990" height="26" as="geometry"/>
                </mxCell>
                <mxCell id="H6z1mRKhEn2zVw4M9w3N-162" value="setTemperature(temperature : double) " style="text;strokeColor=none;fillColor=none;align=left;verticalAlign=top;spacingLeft=4;spacingRight=4;overflow=hidden;rotatable=0;points=[[0,0.5],[1,0.5]];portConstraint=eastwest;" parent="H6z1mRKhEn2zVw4M9w3N-154" vertex="1">
                    <mxGeometry y="189.59375" width="990" height="26" as="geometry"/>
                </mxCell>
                <mxCell id="H6z1mRKhEn2zVw4M9w3N-164" value="Inheritance" style="curved=1;startArrow=none;endArrow=block;endSize=16;endFill=0;exitX=0.231;exitY=1.169;rounded=0;exitDx=0;exitDy=0;entryX=0.75;entryY=0;entryDx=0;entryDy=0;exitPerimeter=0;" parent="1" source="H6z1mRKhEn2zVw4M9w3N-162" target="H6z1mRKhEn2zVw4M9w3N-49" edge="1">
                    <mxGeometry relative="1" as="geometry">
                        <Array as="points"/>
                        <mxPoint x="760" y="-730" as="targetPoint"/>
                        <mxPoint x="1078.79" y="-1757.28825" as="sourcePoint"/>
                    </mxGeometry>
                </mxCell>
                <mxCell id="H6z1mRKhEn2zVw4M9w3N-165" value="TimeLimitedProduct" style="swimlane;fontStyle=1;align=center;verticalAlign=top;childLayout=stackLayout;horizontal=1;startSize=27.09375;horizontalStack=0;resizeParent=1;resizeParentMax=0;resizeLast=0;collapsible=0;marginBottom=0;" parent="1" vertex="1">
                    <mxGeometry x="30" y="-2000" width="800" height="143.09375" as="geometry"/>
                </mxCell>
                <mxCell id="H6z1mRKhEn2zVw4M9w3N-166" value="expiryDate " style="text;strokeColor=none;fillColor=none;align=left;verticalAlign=top;spacingLeft=4;spacingRight=4;overflow=hidden;rotatable=0;points=[[0,0.5],[1,0.5]];portConstraint=eastwest;" parent="H6z1mRKhEn2zVw4M9w3N-165" vertex="1">
                    <mxGeometry y="27.09375" width="800" height="27" as="geometry"/>
                </mxCell>
                <mxCell id="H6z1mRKhEn2zVw4M9w3N-167" style="line;strokeWidth=1;fillColor=none;align=left;verticalAlign=middle;spacingTop=-1;spacingLeft=3;spacingRight=3;rotatable=0;labelPosition=right;points=[];portConstraint=eastwest;strokeColor=inherit;" parent="H6z1mRKhEn2zVw4M9w3N-165" vertex="1">
                    <mxGeometry y="54.09375" width="800" height="8" as="geometry"/>
                </mxCell>
                <mxCell id="H6z1mRKhEn2zVw4M9w3N-168" value="TimeLimitedProduct()" style="text;strokeColor=none;fillColor=none;align=left;verticalAlign=top;spacingLeft=4;spacingRight=4;overflow=hidden;rotatable=0;points=[[0,0.5],[1,0.5]];portConstraint=eastwest;" parent="H6z1mRKhEn2zVw4M9w3N-165" vertex="1">
                    <mxGeometry y="62.09375" width="800" height="27" as="geometry"/>
                </mxCell>
                <mxCell id="H6z1mRKhEn2zVw4M9w3N-169" value="getExpiryDate() " style="text;strokeColor=none;fillColor=none;align=left;verticalAlign=top;spacingLeft=4;spacingRight=4;overflow=hidden;rotatable=0;points=[[0,0.5],[1,0.5]];portConstraint=eastwest;" parent="H6z1mRKhEn2zVw4M9w3N-165" vertex="1">
                    <mxGeometry y="89.09375" width="800" height="27" as="geometry"/>
                </mxCell>
                <mxCell id="H6z1mRKhEn2zVw4M9w3N-170" value="setExpiryDate()" style="text;strokeColor=none;fillColor=none;align=left;verticalAlign=top;spacingLeft=4;spacingRight=4;overflow=hidden;rotatable=0;points=[[0,0.5],[1,0.5]];portConstraint=eastwest;" parent="H6z1mRKhEn2zVw4M9w3N-165" vertex="1">
                    <mxGeometry y="116.09375" width="800" height="27" as="geometry"/>
                </mxCell>
                <mxCell id="H6z1mRKhEn2zVw4M9w3N-172" value="Inheritance" style="curved=1;startArrow=none;endArrow=block;endSize=16;endFill=0;exitX=0.495;exitY=1.034;rounded=0;exitDx=0;exitDy=0;entryX=0.25;entryY=0;entryDx=0;entryDy=0;exitPerimeter=0;" parent="1" source="H6z1mRKhEn2zVw4M9w3N-170" target="H6z1mRKhEn2zVw4M9w3N-49" edge="1">
                    <mxGeometry relative="1" as="geometry">
                        <Array as="points"/>
                        <mxPoint x="780" y="-700" as="targetPoint"/>
                        <mxPoint x="438" y="-1829.98725" as="sourcePoint"/>
                    </mxGeometry>
                </mxCell>
                <mxCell id="H6z1mRKhEn2zVw4M9w3N-173" value="DetailedViewController" style="swimlane;fontStyle=1;align=center;verticalAlign=top;childLayout=stackLayout;horizontal=1;startSize=24.28125;horizontalStack=0;resizeParent=1;resizeParentMax=0;resizeLast=0;collapsible=0;marginBottom=0;" parent="1" vertex="1">
                    <mxGeometry x="380" y="-610" width="360" height="176.28125" as="geometry"/>
                </mxCell>
                <mxCell id="H6z1mRKhEn2zVw4M9w3N-174" value="" style="endArrow=open;endFill=1;endSize=12;html=1;fontSize=17;entryX=0.035;entryY=1.178;entryDx=0;entryDy=0;entryPerimeter=0;" parent="H6z1mRKhEn2zVw4M9w3N-173" target="H6z1mRKhEn2zVw4M9w3N-113" edge="1">
                    <mxGeometry width="160" relative="1" as="geometry">
                        <mxPoint x="360" y="10" as="sourcePoint"/>
                        <mxPoint x="840" y="-308.24771341463406" as="targetPoint"/>
                        <Array as="points">
                            <mxPoint x="860" y="10"/>
                        </Array>
                    </mxGeometry>
                </mxCell>
                <mxCell id="H6z1mRKhEn2zVw4M9w3N-175" value="&lt;b&gt;uses&lt;/b&gt;" style="edgeLabel;html=1;align=center;verticalAlign=middle;resizable=0;points=[];fontSize=17;" parent="H6z1mRKhEn2zVw4M9w3N-174" vertex="1" connectable="0">
                    <mxGeometry x="-0.2711" y="-7" relative="1" as="geometry">
                        <mxPoint as="offset"/>
                    </mxGeometry>
                </mxCell>
                <mxCell id="H6z1mRKhEn2zVw4M9w3N-176" value="productIDField " style="text;strokeColor=none;fillColor=none;align=left;verticalAlign=top;spacingLeft=4;spacingRight=4;overflow=hidden;rotatable=0;points=[[0,0.5],[1,0.5]];portConstraint=eastwest;" parent="H6z1mRKhEn2zVw4M9w3N-173" vertex="1">
                    <mxGeometry y="24.28125" width="360" height="24" as="geometry"/>
                </mxCell>
                <mxCell id="H6z1mRKhEn2zVw4M9w3N-177" value="productNumberField" style="text;strokeColor=none;fillColor=none;align=left;verticalAlign=top;spacingLeft=4;spacingRight=4;overflow=hidden;rotatable=0;points=[[0,0.5],[1,0.5]];portConstraint=eastwest;" parent="H6z1mRKhEn2zVw4M9w3N-173" vertex="1">
                    <mxGeometry y="48.28125" width="360" height="24" as="geometry"/>
                </mxCell>
                <mxCell id="H6z1mRKhEn2zVw4M9w3N-178" value="stellplatzIDField " style="text;strokeColor=none;fillColor=none;align=left;verticalAlign=top;spacingLeft=4;spacingRight=4;overflow=hidden;rotatable=0;points=[[0,0.5],[1,0.5]];portConstraint=eastwest;" parent="H6z1mRKhEn2zVw4M9w3N-173" vertex="1">
                    <mxGeometry y="72.28125" width="360" height="24" as="geometry"/>
                </mxCell>
                <mxCell id="H6z1mRKhEn2zVw4M9w3N-179" value="amountField " style="text;strokeColor=none;fillColor=none;align=left;verticalAlign=top;spacingLeft=4;spacingRight=4;overflow=hidden;rotatable=0;points=[[0,0.5],[1,0.5]];portConstraint=eastwest;" parent="H6z1mRKhEn2zVw4M9w3N-173" vertex="1">
                    <mxGeometry y="96.28125" width="360" height="24" as="geometry"/>
                </mxCell>
                <mxCell id="H6z1mRKhEn2zVw4M9w3N-180" value="productNameField " style="text;strokeColor=none;fillColor=none;align=left;verticalAlign=top;spacingLeft=4;spacingRight=4;overflow=hidden;rotatable=0;points=[[0,0.5],[1,0.5]];portConstraint=eastwest;" parent="H6z1mRKhEn2zVw4M9w3N-173" vertex="1">
                    <mxGeometry y="120.28125" width="360" height="24" as="geometry"/>
                </mxCell>
                <mxCell id="H6z1mRKhEn2zVw4M9w3N-181" value="manufacturerField" style="text;strokeColor=none;fillColor=none;align=left;verticalAlign=top;spacingLeft=4;spacingRight=4;overflow=hidden;rotatable=0;points=[[0,0.5],[1,0.5]];portConstraint=eastwest;" parent="H6z1mRKhEn2zVw4M9w3N-173" vertex="1">
                    <mxGeometry y="144.28125" width="360" height="24" as="geometry"/>
                </mxCell>
                <mxCell id="H6z1mRKhEn2zVw4M9w3N-185" style="line;strokeWidth=1;fillColor=none;align=left;verticalAlign=middle;spacingTop=-1;spacingLeft=3;spacingRight=3;rotatable=0;labelPosition=right;points=[];portConstraint=eastwest;strokeColor=inherit;" parent="H6z1mRKhEn2zVw4M9w3N-173" vertex="1">
                    <mxGeometry y="168.28125" width="360" height="8" as="geometry"/>
                </mxCell>
                <mxCell id="H6z1mRKhEn2zVw4M9w3N-192" value="EditProductController" style="swimlane;fontStyle=1;align=center;verticalAlign=top;childLayout=stackLayout;horizontal=1;startSize=24.28125;horizontalStack=0;resizeParent=1;resizeParentMax=0;resizeLast=0;collapsible=0;marginBottom=0;" parent="1" vertex="1">
                    <mxGeometry x="830" y="-538.75" width="340" height="200.28125" as="geometry"/>
                </mxCell>
                <mxCell id="H6z1mRKhEn2zVw4M9w3N-193" value="productIDField " style="text;strokeColor=none;fillColor=none;align=left;verticalAlign=top;spacingLeft=4;spacingRight=4;overflow=hidden;rotatable=0;points=[[0,0.5],[1,0.5]];portConstraint=eastwest;" parent="H6z1mRKhEn2zVw4M9w3N-192" vertex="1">
                    <mxGeometry y="24.28125" width="340" height="24" as="geometry"/>
                </mxCell>
                <mxCell id="H6z1mRKhEn2zVw4M9w3N-194" value="productNumberField" style="text;strokeColor=none;fillColor=none;align=left;verticalAlign=top;spacingLeft=4;spacingRight=4;overflow=hidden;rotatable=0;points=[[0,0.5],[1,0.5]];portConstraint=eastwest;" parent="H6z1mRKhEn2zVw4M9w3N-192" vertex="1">
                    <mxGeometry y="48.28125" width="340" height="24" as="geometry"/>
                </mxCell>
                <mxCell id="H6z1mRKhEn2zVw4M9w3N-195" value="stellplatzIDField " style="text;strokeColor=none;fillColor=none;align=left;verticalAlign=top;spacingLeft=4;spacingRight=4;overflow=hidden;rotatable=0;points=[[0,0.5],[1,0.5]];portConstraint=eastwest;" parent="H6z1mRKhEn2zVw4M9w3N-192" vertex="1">
                    <mxGeometry y="72.28125" width="340" height="24" as="geometry"/>
                </mxCell>
                <mxCell id="H6z1mRKhEn2zVw4M9w3N-196" value="stellplatzIIDField" style="text;strokeColor=none;fillColor=none;align=left;verticalAlign=top;spacingLeft=4;spacingRight=4;overflow=hidden;rotatable=0;points=[[0,0.5],[1,0.5]];portConstraint=eastwest;" parent="H6z1mRKhEn2zVw4M9w3N-192" vertex="1">
                    <mxGeometry y="96.28125" width="340" height="24" as="geometry"/>
                </mxCell>
                <mxCell id="H6z1mRKhEn2zVw4M9w3N-197" value="amountField" style="text;strokeColor=none;fillColor=none;align=left;verticalAlign=top;spacingLeft=4;spacingRight=4;overflow=hidden;rotatable=0;points=[[0,0.5],[1,0.5]];portConstraint=eastwest;" parent="H6z1mRKhEn2zVw4M9w3N-192" vertex="1">
                    <mxGeometry y="120.28125" width="340" height="24" as="geometry"/>
                </mxCell>
                <mxCell id="H6z1mRKhEn2zVw4M9w3N-198" value="productNameField " style="text;strokeColor=none;fillColor=none;align=left;verticalAlign=top;spacingLeft=4;spacingRight=4;overflow=hidden;rotatable=0;points=[[0,0.5],[1,0.5]];portConstraint=eastwest;" parent="H6z1mRKhEn2zVw4M9w3N-192" vertex="1">
                    <mxGeometry y="144.28125" width="340" height="24" as="geometry"/>
                </mxCell>
                <mxCell id="H6z1mRKhEn2zVw4M9w3N-199" value="manufacturerField " style="text;strokeColor=none;fillColor=none;align=left;verticalAlign=top;spacingLeft=4;spacingRight=4;overflow=hidden;rotatable=0;points=[[0,0.5],[1,0.5]];portConstraint=eastwest;" parent="H6z1mRKhEn2zVw4M9w3N-192" vertex="1">
                    <mxGeometry y="168.28125" width="340" height="24" as="geometry"/>
                </mxCell>
                <mxCell id="H6z1mRKhEn2zVw4M9w3N-203" style="line;strokeWidth=1;fillColor=none;align=left;verticalAlign=middle;spacingTop=-1;spacingLeft=3;spacingRight=3;rotatable=0;labelPosition=right;points=[];portConstraint=eastwest;strokeColor=inherit;" parent="H6z1mRKhEn2zVw4M9w3N-192" vertex="1">
                    <mxGeometry y="192.28125" width="340" height="8" as="geometry"/>
                </mxCell>
                <mxCell id="H6z1mRKhEn2zVw4M9w3N-209" value="HangarController" style="swimlane;fontStyle=1;align=center;verticalAlign=top;childLayout=stackLayout;horizontal=1;startSize=25.96875;horizontalStack=0;resizeParent=1;resizeParentMax=0;resizeLast=0;collapsible=0;marginBottom=0;" parent="1" vertex="1">
                    <mxGeometry x="-500" y="-40" width="340" height="85.96875" as="geometry"/>
                </mxCell>
                <mxCell id="H6z1mRKhEn2zVw4M9w3N-210" value="hangerIdentification " style="text;strokeColor=none;fillColor=none;align=left;verticalAlign=top;spacingLeft=4;spacingRight=4;overflow=hidden;rotatable=0;points=[[0,0.5],[1,0.5]];portConstraint=eastwest;" parent="H6z1mRKhEn2zVw4M9w3N-209" vertex="1">
                    <mxGeometry y="25.96875" width="340" height="26" as="geometry"/>
                </mxCell>
                <mxCell id="H6z1mRKhEn2zVw4M9w3N-211" value="hangerSize " style="text;strokeColor=none;fillColor=none;align=left;verticalAlign=top;spacingLeft=4;spacingRight=4;overflow=hidden;rotatable=0;points=[[0,0.5],[1,0.5]];portConstraint=eastwest;" parent="H6z1mRKhEn2zVw4M9w3N-209" vertex="1">
                    <mxGeometry y="51.96875" width="340" height="26" as="geometry"/>
                </mxCell>
                <mxCell id="H6z1mRKhEn2zVw4M9w3N-214" style="line;strokeWidth=1;fillColor=none;align=left;verticalAlign=middle;spacingTop=-1;spacingLeft=3;spacingRight=3;rotatable=0;labelPosition=right;points=[];portConstraint=eastwest;strokeColor=inherit;" parent="H6z1mRKhEn2zVw4M9w3N-209" vertex="1">
                    <mxGeometry y="77.96875" width="340" height="8" as="geometry"/>
                </mxCell>
                <mxCell id="H6z1mRKhEn2zVw4M9w3N-218" value="ProductController" style="swimlane;fontStyle=1;align=center;verticalAlign=top;childLayout=stackLayout;horizontal=1;startSize=23.71875;horizontalStack=0;resizeParent=1;resizeParentMax=0;resizeLast=0;collapsible=0;marginBottom=0;" parent="1" vertex="1">
                    <mxGeometry x="-570" y="-2140" width="310" height="295.71875" as="geometry"/>
                </mxCell>
                <mxCell id="H6z1mRKhEn2zVw4M9w3N-219" value="amountField " style="text;strokeColor=none;fillColor=none;align=left;verticalAlign=top;spacingLeft=4;spacingRight=4;overflow=hidden;rotatable=0;points=[[0,0.5],[1,0.5]];portConstraint=eastwest;" parent="H6z1mRKhEn2zVw4M9w3N-218" vertex="1">
                    <mxGeometry y="23.71875" width="310" height="24" as="geometry"/>
                </mxCell>
                <mxCell id="H6z1mRKhEn2zVw4M9w3N-220" value="productNameField" style="text;strokeColor=none;fillColor=none;align=left;verticalAlign=top;spacingLeft=4;spacingRight=4;overflow=hidden;rotatable=0;points=[[0,0.5],[1,0.5]];portConstraint=eastwest;" parent="H6z1mRKhEn2zVw4M9w3N-218" vertex="1">
                    <mxGeometry y="47.71875" width="310" height="24" as="geometry"/>
                </mxCell>
                <mxCell id="H6z1mRKhEn2zVw4M9w3N-221" value="productNumberField " style="text;strokeColor=none;fillColor=none;align=left;verticalAlign=top;spacingLeft=4;spacingRight=4;overflow=hidden;rotatable=0;points=[[0,0.5],[1,0.5]];portConstraint=eastwest;" parent="H6z1mRKhEn2zVw4M9w3N-218" vertex="1">
                    <mxGeometry y="71.71875" width="310" height="24" as="geometry"/>
                </mxCell>
                <mxCell id="H6z1mRKhEn2zVw4M9w3N-222" value="manufacturerField " style="text;strokeColor=none;fillColor=none;align=left;verticalAlign=top;spacingLeft=4;spacingRight=4;overflow=hidden;rotatable=0;points=[[0,0.5],[1,0.5]];portConstraint=eastwest;" parent="H6z1mRKhEn2zVw4M9w3N-218" vertex="1">
                    <mxGeometry y="95.71875" width="310" height="24" as="geometry"/>
                </mxCell>
                <mxCell id="H6z1mRKhEn2zVw4M9w3N-223" value="productTypeField" style="text;strokeColor=none;fillColor=none;align=left;verticalAlign=top;spacingLeft=4;spacingRight=4;overflow=hidden;rotatable=0;points=[[0,0.5],[1,0.5]];portConstraint=eastwest;" parent="H6z1mRKhEn2zVw4M9w3N-218" vertex="1">
                    <mxGeometry y="119.71875" width="310" height="24" as="geometry"/>
                </mxCell>
                <mxCell id="H6z1mRKhEn2zVw4M9w3N-224" value="climateCategoryField" style="text;strokeColor=none;fillColor=none;align=left;verticalAlign=top;spacingLeft=4;spacingRight=4;overflow=hidden;rotatable=0;points=[[0,0.5],[1,0.5]];portConstraint=eastwest;" parent="H6z1mRKhEn2zVw4M9w3N-218" vertex="1">
                    <mxGeometry y="143.71875" width="310" height="24" as="geometry"/>
                </mxCell>
                <mxCell id="H6z1mRKhEn2zVw4M9w3N-225" value="hangarField" style="text;strokeColor=none;fillColor=none;align=left;verticalAlign=top;spacingLeft=4;spacingRight=4;overflow=hidden;rotatable=0;points=[[0,0.5],[1,0.5]];portConstraint=eastwest;" parent="H6z1mRKhEn2zVw4M9w3N-218" vertex="1">
                    <mxGeometry y="167.71875" width="310" height="24" as="geometry"/>
                </mxCell>
                <mxCell id="H6z1mRKhEn2zVw4M9w3N-226" value="shelfDropDown " style="text;strokeColor=none;fillColor=none;align=left;verticalAlign=top;spacingLeft=4;spacingRight=4;overflow=hidden;rotatable=0;points=[[0,0.5],[1,0.5]];portConstraint=eastwest;" parent="H6z1mRKhEn2zVw4M9w3N-218" vertex="1">
                    <mxGeometry y="191.71875" width="310" height="24" as="geometry"/>
                </mxCell>
                <mxCell id="H6z1mRKhEn2zVw4M9w3N-227" value="shelfSpaceField" style="text;strokeColor=none;fillColor=none;align=left;verticalAlign=top;spacingLeft=4;spacingRight=4;overflow=hidden;rotatable=0;points=[[0,0.5],[1,0.5]];portConstraint=eastwest;" parent="H6z1mRKhEn2zVw4M9w3N-218" vertex="1">
                    <mxGeometry y="215.71875" width="310" height="24" as="geometry"/>
                </mxCell>
                <mxCell id="H6z1mRKhEn2zVw4M9w3N-228" value="expiryDateField " style="text;strokeColor=none;fillColor=none;align=left;verticalAlign=top;spacingLeft=4;spacingRight=4;overflow=hidden;rotatable=0;points=[[0,0.5],[1,0.5]];portConstraint=eastwest;" parent="H6z1mRKhEn2zVw4M9w3N-218" vertex="1">
                    <mxGeometry y="239.71875" width="310" height="24" as="geometry"/>
                </mxCell>
                <mxCell id="H6z1mRKhEn2zVw4M9w3N-229" value="temperatureField" style="text;strokeColor=none;fillColor=none;align=left;verticalAlign=top;spacingLeft=4;spacingRight=4;overflow=hidden;rotatable=0;points=[[0,0.5],[1,0.5]];portConstraint=eastwest;" parent="H6z1mRKhEn2zVw4M9w3N-218" vertex="1">
                    <mxGeometry y="263.71875" width="310" height="24" as="geometry"/>
                </mxCell>
                <mxCell id="H6z1mRKhEn2zVw4M9w3N-235" style="line;strokeWidth=1;fillColor=none;align=left;verticalAlign=middle;spacingTop=-1;spacingLeft=3;spacingRight=3;rotatable=0;labelPosition=right;points=[];portConstraint=eastwest;strokeColor=inherit;" parent="H6z1mRKhEn2zVw4M9w3N-218" vertex="1">
                    <mxGeometry y="287.71875" width="310" height="8" as="geometry"/>
                </mxCell>
                <mxCell id="H6z1mRKhEn2zVw4M9w3N-243" value="ShelfController" style="swimlane;fontStyle=1;align=center;verticalAlign=top;childLayout=stackLayout;horizontal=1;startSize=25.048295454545453;horizontalStack=0;resizeParent=1;resizeParentMax=0;resizeLast=0;collapsible=0;marginBottom=0;" parent="1" vertex="1">
                    <mxGeometry x="1370" y="-10" width="340" height="158.04829545454544" as="geometry"/>
                </mxCell>
                <mxCell id="H6z1mRKhEn2zVw4M9w3N-244" value="regalbezeichnung " style="text;strokeColor=none;fillColor=none;align=left;verticalAlign=top;spacingLeft=4;spacingRight=4;overflow=hidden;rotatable=0;points=[[0,0.5],[1,0.5]];portConstraint=eastwest;" parent="H6z1mRKhEn2zVw4M9w3N-243" vertex="1">
                    <mxGeometry y="25.048295454545453" width="340" height="25" as="geometry"/>
                </mxCell>
                <mxCell id="H6z1mRKhEn2zVw4M9w3N-245" value="anzahlPlaetze " style="text;strokeColor=none;fillColor=none;align=left;verticalAlign=top;spacingLeft=4;spacingRight=4;overflow=hidden;rotatable=0;points=[[0,0.5],[1,0.5]];portConstraint=eastwest;" parent="H6z1mRKhEn2zVw4M9w3N-243" vertex="1">
                    <mxGeometry y="50.04829545454545" width="340" height="25" as="geometry"/>
                </mxCell>
                <mxCell id="H6z1mRKhEn2zVw4M9w3N-246" value="selectHangar " style="text;strokeColor=none;fillColor=none;align=left;verticalAlign=top;spacingLeft=4;spacingRight=4;overflow=hidden;rotatable=0;points=[[0,0.5],[1,0.5]];portConstraint=eastwest;" parent="H6z1mRKhEn2zVw4M9w3N-243" vertex="1">
                    <mxGeometry y="75.04829545454545" width="340" height="25" as="geometry"/>
                </mxCell>
                <mxCell id="H6z1mRKhEn2zVw4M9w3N-247" value="selectRegaltyp" style="text;strokeColor=none;fillColor=none;align=left;verticalAlign=top;spacingLeft=4;spacingRight=4;overflow=hidden;rotatable=0;points=[[0,0.5],[1,0.5]];portConstraint=eastwest;" parent="H6z1mRKhEn2zVw4M9w3N-243" vertex="1">
                    <mxGeometry y="100.04829545454545" width="340" height="25" as="geometry"/>
                </mxCell>
                <mxCell id="H6z1mRKhEn2zVw4M9w3N-248" value="selectRegalkategorie " style="text;strokeColor=none;fillColor=none;align=left;verticalAlign=top;spacingLeft=4;spacingRight=4;overflow=hidden;rotatable=0;points=[[0,0.5],[1,0.5]];portConstraint=eastwest;" parent="H6z1mRKhEn2zVw4M9w3N-243" vertex="1">
                    <mxGeometry y="125.04829545454545" width="340" height="25" as="geometry"/>
                </mxCell>
                <mxCell id="H6z1mRKhEn2zVw4M9w3N-251" style="line;strokeWidth=1;fillColor=none;align=left;verticalAlign=middle;spacingTop=-1;spacingLeft=3;spacingRight=3;rotatable=0;labelPosition=right;points=[];portConstraint=eastwest;strokeColor=inherit;" parent="H6z1mRKhEn2zVw4M9w3N-243" vertex="1">
                    <mxGeometry y="150.04829545454544" width="340" height="8" as="geometry"/>
                </mxCell>
                <mxCell id="H6z1mRKhEn2zVw4M9w3N-285" value="App" style="swimlane;fontStyle=1;align=center;verticalAlign=top;childLayout=stackLayout;horizontal=1;startSize=27.09375;horizontalStack=0;resizeParent=1;resizeParentMax=0;resizeLast=0;collapsible=0;marginBottom=0;" parent="1" vertex="1">
                    <mxGeometry x="1430" y="-730.0000000000002" width="207" height="116.09375" as="geometry"/>
                </mxCell>
                <mxCell id="H6z1mRKhEn2zVw4M9w3N-286" value="configuration" style="text;strokeColor=none;fillColor=none;align=left;verticalAlign=top;spacingLeft=4;spacingRight=4;overflow=hidden;rotatable=0;points=[[0,0.5],[1,0.5]];portConstraint=eastwest;" parent="H6z1mRKhEn2zVw4M9w3N-285" vertex="1">
                    <mxGeometry y="27.09375" width="207" height="27" as="geometry"/>
                </mxCell>
                <mxCell id="H6z1mRKhEn2zVw4M9w3N-287" style="line;strokeWidth=1;fillColor=none;align=left;verticalAlign=middle;spacingTop=-1;spacingLeft=3;spacingRight=3;rotatable=0;labelPosition=right;points=[];portConstraint=eastwest;strokeColor=inherit;" parent="H6z1mRKhEn2zVw4M9w3N-285" vertex="1">
                    <mxGeometry y="54.09375" width="207" height="8" as="geometry"/>
                </mxCell>
                <mxCell id="H6z1mRKhEn2zVw4M9w3N-288" value="initialize()" style="text;strokeColor=none;fillColor=none;align=left;verticalAlign=top;spacingLeft=4;spacingRight=4;overflow=hidden;rotatable=0;points=[[0,0.5],[1,0.5]];portConstraint=eastwest;" parent="H6z1mRKhEn2zVw4M9w3N-285" vertex="1">
                    <mxGeometry y="62.09375" width="207" height="27" as="geometry"/>
                </mxCell>
                <mxCell id="H6z1mRKhEn2zVw4M9w3N-289" value="run()" style="text;strokeColor=none;fillColor=none;align=left;verticalAlign=top;spacingLeft=4;spacingRight=4;overflow=hidden;rotatable=0;points=[[0,0.5],[1,0.5]];portConstraint=eastwest;" parent="H6z1mRKhEn2zVw4M9w3N-285" vertex="1">
                    <mxGeometry y="89.09375" width="207" height="27" as="geometry"/>
                </mxCell>
                <mxCell id="H6z1mRKhEn2zVw4M9w3N-303" value="" style="endArrow=open;endFill=1;endSize=12;html=1;exitX=0.5;exitY=0;exitDx=0;exitDy=0;" parent="1" source="H6z1mRKhEn2zVw4M9w3N-23" edge="1">
                    <mxGeometry width="160" relative="1" as="geometry">
                        <mxPoint x="420" y="613" as="sourcePoint"/>
                        <mxPoint x="541" y="-430" as="targetPoint"/>
                    </mxGeometry>
                </mxCell>
                <mxCell id="H6z1mRKhEn2zVw4M9w3N-304" value="&lt;b&gt;uses&lt;/b&gt;" style="edgeLabel;html=1;align=center;verticalAlign=middle;resizable=0;points=[];fontSize=17;" parent="H6z1mRKhEn2zVw4M9w3N-303" vertex="1" connectable="0">
                    <mxGeometry x="-0.1525" y="1" relative="1" as="geometry">
                        <mxPoint x="1" y="-88" as="offset"/>
                    </mxGeometry>
                </mxCell>
                <mxCell id="H6z1mRKhEn2zVw4M9w3N-305" value="" style="endArrow=open;endFill=1;endSize=12;html=1;entryX=0;entryY=0.5;entryDx=0;entryDy=0;exitX=0.5;exitY=0;exitDx=0;exitDy=0;" parent="1" source="H6z1mRKhEn2zVw4M9w3N-23" target="H6z1mRKhEn2zVw4M9w3N-198" edge="1">
                    <mxGeometry width="160" relative="1" as="geometry">
                        <mxPoint x="547" y="532" as="sourcePoint"/>
                        <mxPoint x="830" y="-158.46875" as="targetPoint"/>
                        <Array as="points">
                            <mxPoint x="540" y="-380"/>
                        </Array>
                    </mxGeometry>
                </mxCell>
                <mxCell id="H6z1mRKhEn2zVw4M9w3N-306" value="&lt;b&gt;uses&lt;/b&gt;" style="edgeLabel;html=1;align=center;verticalAlign=middle;resizable=0;points=[];fontSize=17;" parent="H6z1mRKhEn2zVw4M9w3N-305" vertex="1" connectable="0">
                    <mxGeometry x="-0.2108" y="-1" relative="1" as="geometry">
                        <mxPoint x="169" y="-112" as="offset"/>
                    </mxGeometry>
                </mxCell>
                <mxCell id="H6z1mRKhEn2zVw4M9w3N-307" value="" style="endArrow=open;endFill=1;endSize=12;html=1;exitX=0.5;exitY=0;exitDx=0;exitDy=0;entryX=0;entryY=0.5;entryDx=0;entryDy=0;" parent="1" source="H6z1mRKhEn2zVw4M9w3N-23" edge="1">
                    <mxGeometry width="160" relative="1" as="geometry">
                        <mxPoint x="-42" y="-110" as="sourcePoint"/>
                        <mxPoint x="350.0000000000002" y="-826.1121323529414" as="targetPoint"/>
                        <Array as="points">
                            <mxPoint x="540" y="-60"/>
                            <mxPoint x="280" y="-60"/>
                            <mxPoint x="280" y="-780"/>
                        </Array>
                    </mxGeometry>
                </mxCell>
                <mxCell id="H6z1mRKhEn2zVw4M9w3N-308" value="&lt;b&gt;&lt;font style=&quot;font-size: 17px;&quot;&gt;uses&lt;/font&gt;&lt;/b&gt;" style="edgeLabel;html=1;align=center;verticalAlign=middle;resizable=0;points=[];" parent="H6z1mRKhEn2zVw4M9w3N-307" vertex="1" connectable="0">
                    <mxGeometry x="0.1815" y="2" relative="1" as="geometry">
                        <mxPoint y="-1" as="offset"/>
                    </mxGeometry>
                </mxCell>
                <mxCell id="H6z1mRKhEn2zVw4M9w3N-309" value="" style="endArrow=open;endFill=1;endSize=12;html=1;entryX=0.536;entryY=1.07;entryDx=0;entryDy=0;entryPerimeter=0;" parent="1" target="H6z1mRKhEn2zVw4M9w3N-143" edge="1">
                    <mxGeometry width="160" relative="1" as="geometry">
                        <mxPoint x="540" y="-30" as="sourcePoint"/>
                        <mxPoint x="2172.6400000000003" y="-1146.16625" as="targetPoint"/>
                        <Array as="points">
                            <mxPoint x="540" y="-10"/>
                            <mxPoint x="540" y="-60"/>
                            <mxPoint x="2180" y="-70"/>
                        </Array>
                    </mxGeometry>
                </mxCell>
                <mxCell id="H6z1mRKhEn2zVw4M9w3N-310" value="&lt;b&gt;uses&lt;/b&gt;" style="edgeLabel;html=1;align=center;verticalAlign=middle;resizable=0;points=[];fontSize=17;" parent="H6z1mRKhEn2zVw4M9w3N-309" vertex="1" connectable="0">
                    <mxGeometry x="0.7197" y="1" relative="1" as="geometry">
                        <mxPoint as="offset"/>
                    </mxGeometry>
                </mxCell>
                <mxCell id="H6z1mRKhEn2zVw4M9w3N-311" value="" style="endArrow=open;endFill=1;endSize=12;html=1;fontSize=17;exitX=0.5;exitY=0;exitDx=0;exitDy=0;entryX=0;entryY=0.5;entryDx=0;entryDy=0;" parent="1" source="H6z1mRKhEn2zVw4M9w3N-209" edge="1">
                    <mxGeometry width="160" relative="1" as="geometry">
                        <mxPoint x="-400" y="-360" as="sourcePoint"/>
                        <mxPoint x="-160" y="-1206.120535714286" as="targetPoint"/>
                        <Array as="points">
                            <mxPoint x="-320" y="-1134"/>
                        </Array>
                    </mxGeometry>
                </mxCell>
                <mxCell id="H6z1mRKhEn2zVw4M9w3N-312" value="&lt;b&gt;uses&lt;br&gt;&lt;/b&gt;" style="edgeLabel;html=1;align=center;verticalAlign=middle;resizable=0;points=[];fontSize=17;" parent="H6z1mRKhEn2zVw4M9w3N-311" vertex="1" connectable="0">
                    <mxGeometry x="-0.2964" y="-2" relative="1" as="geometry">
                        <mxPoint as="offset"/>
                    </mxGeometry>
                </mxCell>
                <mxCell id="H6z1mRKhEn2zVw4M9w3N-313" value="" style="endArrow=open;endFill=1;endSize=12;html=1;fontSize=17;exitX=0.5;exitY=0;exitDx=0;exitDy=0;entryX=0;entryY=0.5;entryDx=0;entryDy=0;" parent="1" source="H6z1mRKhEn2zVw4M9w3N-243" edge="1">
                    <mxGeometry width="160" relative="1" as="geometry">
                        <mxPoint x="1190" y="-40" as="sourcePoint"/>
                        <mxPoint x="-160" y="-1206.120535714286" as="targetPoint"/>
                        <Array as="points">
                            <mxPoint x="1540" y="-90"/>
                            <mxPoint x="-200" y="-80"/>
                            <mxPoint x="-200" y="-990"/>
                        </Array>
                    </mxGeometry>
                </mxCell>
                <mxCell id="H6z1mRKhEn2zVw4M9w3N-314" value="&lt;b&gt;uses&lt;/b&gt;" style="edgeLabel;html=1;align=center;verticalAlign=middle;resizable=0;points=[];fontSize=17;" parent="H6z1mRKhEn2zVw4M9w3N-313" vertex="1" connectable="0">
                    <mxGeometry x="0.6745" relative="1" as="geometry">
                        <mxPoint as="offset"/>
                    </mxGeometry>
                </mxCell>
                <mxCell id="H6z1mRKhEn2zVw4M9w3N-315" value="" style="endArrow=open;endFill=1;endSize=12;html=1;fontSize=17;entryX=0.986;entryY=1.116;entryDx=0;entryDy=0;exitX=0.5;exitY=0;exitDx=0;exitDy=0;entryPerimeter=0;" parent="1" source="H6z1mRKhEn2zVw4M9w3N-243" target="H6z1mRKhEn2zVw4M9w3N-113" edge="1">
                    <mxGeometry width="160" relative="1" as="geometry">
                        <mxPoint x="1820" y="-210" as="sourcePoint"/>
                        <mxPoint x="1860" y="-918.2477134146341" as="targetPoint"/>
                        <Array as="points">
                            <mxPoint x="1540" y="-90"/>
                            <mxPoint x="1851" y="-90"/>
                        </Array>
                    </mxGeometry>
                </mxCell>
                <mxCell id="H6z1mRKhEn2zVw4M9w3N-316" value="uses" style="edgeLabel;html=1;align=center;verticalAlign=middle;resizable=0;points=[];fontSize=17;" parent="H6z1mRKhEn2zVw4M9w3N-315" vertex="1" connectable="0">
                    <mxGeometry x="0.4929" relative="1" as="geometry">
                        <mxPoint as="offset"/>
                    </mxGeometry>
                </mxCell>
                <mxCell id="H6z1mRKhEn2zVw4M9w3N-317" value="" style="endArrow=open;endFill=1;endSize=12;html=1;fontSize=17;exitX=0.5;exitY=0;exitDx=0;exitDy=0;entryX=0.794;entryY=1.298;entryDx=0;entryDy=0;entryPerimeter=0;" parent="1" source="H6z1mRKhEn2zVw4M9w3N-192" target="H6z1mRKhEn2zVw4M9w3N-83" edge="1">
                    <mxGeometry width="160" relative="1" as="geometry">
                        <mxPoint x="760" y="-640" as="sourcePoint"/>
                        <mxPoint x="920" y="-640" as="targetPoint"/>
                    </mxGeometry>
                </mxCell>
                <mxCell id="H6z1mRKhEn2zVw4M9w3N-318" value="&lt;b&gt;uses&lt;/b&gt;" style="edgeLabel;html=1;align=center;verticalAlign=middle;resizable=0;points=[];fontSize=17;" parent="H6z1mRKhEn2zVw4M9w3N-317" vertex="1" connectable="0">
                    <mxGeometry x="0.3507" y="-1" relative="1" as="geometry">
                        <mxPoint as="offset"/>
                    </mxGeometry>
                </mxCell>
                <mxCell id="H6z1mRKhEn2zVw4M9w3N-319" value="" style="endArrow=open;endFill=1;endSize=12;html=1;fontSize=17;" parent="1" edge="1">
                    <mxGeometry width="160" relative="1" as="geometry">
                        <mxPoint x="1170" y="-400" as="sourcePoint"/>
                        <mxPoint x="2134" y="-1170" as="targetPoint"/>
                        <Array as="points">
                            <mxPoint x="2140" y="-400"/>
                        </Array>
                    </mxGeometry>
                </mxCell>
                <mxCell id="H6z1mRKhEn2zVw4M9w3N-320" value="&lt;b&gt;uses&lt;/b&gt;" style="edgeLabel;html=1;align=center;verticalAlign=middle;resizable=0;points=[];fontSize=17;" parent="H6z1mRKhEn2zVw4M9w3N-319" vertex="1" connectable="0">
                    <mxGeometry x="-0.1261" relative="1" as="geometry">
                        <mxPoint x="-60" y="-6" as="offset"/>
                    </mxGeometry>
                </mxCell>
                <mxCell id="H6z1mRKhEn2zVw4M9w3N-321" value="" style="endArrow=open;endFill=1;endSize=12;html=1;fontSize=17;entryX=0.512;entryY=0.916;entryDx=0;entryDy=0;entryPerimeter=0;exitX=0.001;exitY=1.03;exitDx=0;exitDy=0;exitPerimeter=0;" parent="1" source="H6z1mRKhEn2zVw4M9w3N-178" edge="1">
                    <mxGeometry width="160" relative="1" as="geometry">
                        <mxPoint x="30" y="-760" as="sourcePoint"/>
                        <mxPoint x="80.12799999999993" y="-1196.1365357142856" as="targetPoint"/>
                        <Array as="points">
                            <mxPoint x="80" y="-512"/>
                        </Array>
                    </mxGeometry>
                </mxCell>
                <mxCell id="H6z1mRKhEn2zVw4M9w3N-322" value="&lt;b&gt;uses&lt;/b&gt;" style="edgeLabel;html=1;align=center;verticalAlign=middle;resizable=0;points=[];fontSize=17;" parent="H6z1mRKhEn2zVw4M9w3N-321" vertex="1" connectable="0">
                    <mxGeometry x="0.1296" y="-1" relative="1" as="geometry">
                        <mxPoint as="offset"/>
                    </mxGeometry>
                </mxCell>
                <mxCell id="H6z1mRKhEn2zVw4M9w3N-323" value="" style="endArrow=open;endFill=1;endSize=12;html=1;fontSize=17;exitX=0.5;exitY=0;exitDx=0;exitDy=0;" parent="1" source="H6z1mRKhEn2zVw4M9w3N-173" edge="1">
                    <mxGeometry width="160" relative="1" as="geometry">
                        <mxPoint x="600" y="-640" as="sourcePoint"/>
                        <mxPoint x="560" y="-790" as="targetPoint"/>
                    </mxGeometry>
                </mxCell>
                <mxCell id="H6z1mRKhEn2zVw4M9w3N-324" value="&lt;b&gt;uses&lt;/b&gt;" style="edgeLabel;html=1;align=center;verticalAlign=middle;resizable=0;points=[];fontSize=17;" parent="H6z1mRKhEn2zVw4M9w3N-323" vertex="1" connectable="0">
                    <mxGeometry x="0.3211" y="3" relative="1" as="geometry">
                        <mxPoint as="offset"/>
                    </mxGeometry>
                </mxCell>
                <mxCell id="H6z1mRKhEn2zVw4M9w3N-325" value="" style="endArrow=open;endFill=1;endSize=12;html=1;fontSize=17;" parent="1" edge="1">
                    <mxGeometry width="160" relative="1" as="geometry">
                        <mxPoint x="665" y="-430" as="sourcePoint"/>
                        <mxPoint x="2100" y="-1170" as="targetPoint"/>
                        <Array as="points">
                            <mxPoint x="665" y="-100"/>
                            <mxPoint x="1330" y="-100"/>
                            <mxPoint x="2110" y="-100"/>
                        </Array>
                    </mxGeometry>
                </mxCell>
                <mxCell id="H6z1mRKhEn2zVw4M9w3N-326" value="&lt;b&gt;uses&lt;/b&gt;" style="edgeLabel;html=1;align=center;verticalAlign=middle;resizable=0;points=[];fontSize=17;" parent="H6z1mRKhEn2zVw4M9w3N-325" vertex="1" connectable="0">
                    <mxGeometry x="0.5052" y="-6" relative="1" as="geometry">
                        <mxPoint y="1" as="offset"/>
                    </mxGeometry>
                </mxCell>
                <mxCell id="H6z1mRKhEn2zVw4M9w3N-327" value="" style="endArrow=open;endFill=1;endSize=12;html=1;fontSize=17;entryX=0.5;entryY=0;entryDx=0;entryDy=0;" parent="1" target="H6z1mRKhEn2zVw4M9w3N-126" edge="1">
                    <mxGeometry width="160" relative="1" as="geometry">
                        <mxPoint x="-260" y="-1890" as="sourcePoint"/>
                        <mxPoint x="2160" y="-1720" as="targetPoint"/>
                        <Array as="points">
                            <mxPoint x="-90" y="-1890"/>
                            <mxPoint x="-90" y="-1840"/>
                            <mxPoint x="-90" y="-1710"/>
                            <mxPoint x="2155" y="-1712"/>
                        </Array>
                    </mxGeometry>
                </mxCell>
                <mxCell id="H6z1mRKhEn2zVw4M9w3N-328" value="&lt;b&gt;uses&lt;/b&gt;" style="edgeLabel;html=1;align=center;verticalAlign=middle;resizable=0;points=[];fontSize=17;" parent="H6z1mRKhEn2zVw4M9w3N-327" vertex="1" connectable="0">
                    <mxGeometry x="0.9042" relative="1" as="geometry">
                        <mxPoint as="offset"/>
                    </mxGeometry>
                </mxCell>
                <mxCell id="H6z1mRKhEn2zVw4M9w3N-329" value="" style="endArrow=open;endFill=1;endSize=12;html=1;fontSize=17;exitX=1;exitY=0.5;exitDx=0;exitDy=0;entryX=0.5;entryY=0;entryDx=0;entryDy=0;" parent="1" source="H6z1mRKhEn2zVw4M9w3N-228" target="H6z1mRKhEn2zVw4M9w3N-84" edge="1">
                    <mxGeometry width="160" relative="1" as="geometry">
                        <mxPoint x="-260" y="-1840.28125" as="sourcePoint"/>
                        <mxPoint x="-100" y="-1710" as="targetPoint"/>
                        <Array as="points">
                            <mxPoint x="-90" y="-1890"/>
                            <mxPoint x="-90" y="-1840"/>
                            <mxPoint x="-90" y="-1712"/>
                            <mxPoint x="1540" y="-1712"/>
                        </Array>
                    </mxGeometry>
                </mxCell>
                <mxCell id="H6z1mRKhEn2zVw4M9w3N-330" value="&lt;b&gt;uses&lt;/b&gt;" style="edgeLabel;html=1;align=center;verticalAlign=middle;resizable=0;points=[];fontSize=17;" parent="H6z1mRKhEn2zVw4M9w3N-329" vertex="1" connectable="0">
                    <mxGeometry x="0.8666" y="-1" relative="1" as="geometry">
                        <mxPoint as="offset"/>
                    </mxGeometry>
                </mxCell>
                <mxCell id="H6z1mRKhEn2zVw4M9w3N-331" value="" style="endArrow=open;endFill=1;endSize=12;html=1;fontSize=17;exitX=1;exitY=0.5;exitDx=0;exitDy=0;entryX=0.5;entryY=0;entryDx=0;entryDy=0;" parent="1" source="H6z1mRKhEn2zVw4M9w3N-228" target="H6z1mRKhEn2zVw4M9w3N-49" edge="1">
                    <mxGeometry width="160" relative="1" as="geometry">
                        <mxPoint x="-260" y="-1840.28125" as="sourcePoint"/>
                        <mxPoint x="-60" y="-1670" as="targetPoint"/>
                        <Array as="points">
                            <mxPoint x="-90" y="-1890"/>
                            <mxPoint x="-90" y="-1840"/>
                            <mxPoint x="-90" y="-1712"/>
                            <mxPoint x="760" y="-1712"/>
                        </Array>
                    </mxGeometry>
                </mxCell>
                <mxCell id="H6z1mRKhEn2zVw4M9w3N-332" value="&lt;b&gt;uses&lt;/b&gt;" style="edgeLabel;html=1;align=center;verticalAlign=middle;resizable=0;points=[];fontSize=17;" parent="H6z1mRKhEn2zVw4M9w3N-331" vertex="1" connectable="0">
                    <mxGeometry x="0.8012" relative="1" as="geometry">
                        <mxPoint as="offset"/>
                    </mxGeometry>
                </mxCell>
                <mxCell id="H6z1mRKhEn2zVw4M9w3N-333" value="" style="endArrow=open;endFill=1;endSize=12;html=1;fontSize=17;entryX=0.5;entryY=0;entryDx=0;entryDy=0;" parent="1" target="H6z1mRKhEn2zVw4M9w3N-1" edge="1">
                    <mxGeometry width="160" relative="1" as="geometry">
                        <mxPoint x="-260" y="-1890" as="sourcePoint"/>
                        <mxPoint x="-50" y="-1650" as="targetPoint"/>
                        <Array as="points">
                            <mxPoint x="-90" y="-1890"/>
                            <mxPoint x="-90" y="-1840"/>
                            <mxPoint x="-90" y="-1712"/>
                            <mxPoint x="75" y="-1712"/>
                        </Array>
                    </mxGeometry>
                </mxCell>
                <mxCell id="H6z1mRKhEn2zVw4M9w3N-334" value="&lt;b&gt;uses&lt;/b&gt;" style="edgeLabel;html=1;align=center;verticalAlign=middle;resizable=0;points=[];fontSize=17;" parent="H6z1mRKhEn2zVw4M9w3N-333" vertex="1" connectable="0">
                    <mxGeometry x="0.55" y="-4" relative="1" as="geometry">
                        <mxPoint as="offset"/>
                    </mxGeometry>
                </mxCell>
                <mxCell id="H6z1mRKhEn2zVw4M9w3N-335" value="" style="endArrow=open;endFill=1;endSize=12;html=1;fontSize=17;exitX=1;exitY=0.5;exitDx=0;exitDy=0;entryX=0.5;entryY=0;entryDx=0;entryDy=0;" parent="1" source="H6z1mRKhEn2zVw4M9w3N-219" target="H6z1mRKhEn2zVw4M9w3N-165" edge="1">
                    <mxGeometry width="160" relative="1" as="geometry">
                        <mxPoint x="-220" y="-2120" as="sourcePoint"/>
                        <mxPoint x="-60" y="-2120" as="targetPoint"/>
                        <Array as="points">
                            <mxPoint x="430" y="-2104"/>
                        </Array>
                    </mxGeometry>
                </mxCell>
                <mxCell id="H6z1mRKhEn2zVw4M9w3N-336" value="&lt;b&gt;uses&lt;/b&gt;" style="edgeLabel;html=1;align=center;verticalAlign=middle;resizable=0;points=[];fontSize=17;" parent="H6z1mRKhEn2zVw4M9w3N-335" vertex="1" connectable="0">
                    <mxGeometry x="0.8438" relative="1" as="geometry">
                        <mxPoint as="offset"/>
                    </mxGeometry>
                </mxCell>
                <mxCell id="H6z1mRKhEn2zVw4M9w3N-337" value="" style="endArrow=open;endFill=1;endSize=12;html=1;fontSize=17;exitX=1;exitY=0.5;exitDx=0;exitDy=0;entryX=0.5;entryY=0;entryDx=0;entryDy=0;" parent="1" source="H6z1mRKhEn2zVw4M9w3N-219" target="H6z1mRKhEn2zVw4M9w3N-154" edge="1">
                    <mxGeometry width="160" relative="1" as="geometry">
                        <mxPoint x="637" y="-2130.00125" as="sourcePoint"/>
                        <mxPoint x="1327" y="-2025.72" as="targetPoint"/>
                        <Array as="points">
                            <mxPoint x="1355" y="-2100"/>
                        </Array>
                    </mxGeometry>
                </mxCell>
                <mxCell id="H6z1mRKhEn2zVw4M9w3N-338" value="&lt;b&gt;uses&lt;/b&gt;" style="edgeLabel;html=1;align=center;verticalAlign=middle;resizable=0;points=[];fontSize=17;" parent="H6z1mRKhEn2zVw4M9w3N-337" vertex="1" connectable="0">
                    <mxGeometry x="0.9277" relative="1" as="geometry">
                        <mxPoint as="offset"/>
                    </mxGeometry>
                </mxCell>
            </root>
        </mxGraphModel>
    </diagram>
</mxfile>